/* XPM */
static char *_277da1b55ba4f4bf8bdfe93635ae4c7cI1vRS2yhBhjptCp[] = {
/* columns rows colors chars-per-pixel */
"64 64 9 1 ",
"  c #73275C",
". c #43434F",
"X c #B0305C",
"o c #BD4882",
"O c #FF6B97",
"+ c #99D8EA",
"@ c #FFB5B5",
"# c #C2C2D1",
"$ c white",
/* pixels */
"++++++++++++++++++++++++++++++++++++++++++++++++++++++++++++++++",
"++++++++++++++++++++++++++++++++++++++++++++++++++++++++++++++++",
"++++++++++++++++++++++++++++++++++++++++++++++++++++++++++++++++",
"++++++++++++++++++++++++++++++++++++++++++++++++++++++++++++++++",
"++++++++++++++++++++++++++++++++++++++++++++++++++++++++++++++++",
"++++++++++++++++++++++++++++++++++++++++++++++++++++++++++++++++",
"++++++++++++++++++++++++++++++++++++++++++++++++++++++++++++++++",
"++++++++++++++++++++++++++++++++++++++++++++++++++++++++++++++++",
"++++++++++++++++++++++++++++++++++++++++++++++++++++++++++++++++",
"++++++++++++++++++++++++++++++++++++++++++++++++++++++++++++++++",
"++++++++++++++++++++++++++++++++++++++++++++++++++++++++++++++++",
"++++++++++++++++++++++++++++++++++++++++++++++++++++++++++++++++",
"++++++++++++++++++++++++++++++++++++++++++++++++++++++++++++++++",
"++++++++++++++++++++++++++++++++++++++++++++++++++++++++++++++++",
"++++++++++++++++++++++++++++++++++++++++++++++++++++++++++++++++",
"++++++++++++++++++++++++++++++++++++++++++++++++++++++++++++++++",
"++++++++++++++++++++++++++++++++++++++++++++++++++++++++++++++++",
"++++++++++++++++++++++++++++++++++++++++++++++++++++++++++++++++",
"++++++++++++++++++++++++++++++++...+..++++++++++++++++++++++++++",
"+++++++++++++++++++++++++++++... ........+++++++++++++++++++++++",
"+++++++++++++++++++++++++++...X .$. ..$$..++++++++++++++++++++++",
"+++++++++++++++++++++++++...XX .$$.  ..#$$.+++++++++++++++++++++",
"++++++++++++++++++++++++..XXX .#$#. X ..#$..++++++++++++++++++++",
"++++++++++++++++++++++++.XXXX.#$$.. XXX .$$.++++++++++++++++++++",
"+++++++++++++++++++++++.XXXX .$$#. XXXXX.#$.++++++++++++++++++++",
"++++++++++++++++++++++..XXX.#$$$.  XXXXX .$.++++++++++++++++++++",
"++++++++++++++++++++++.XXX #$$$#. XXXXXXX.#..+++++++++++++++++++",
"+++++++++++++++++++++.XXX .$...#. XX....X .$.+++++++++++++++++++",
"+++++++++++++++++++++.XXX.#$.#... X..   .  $.+++++++++++++++++++",
"++++++++++++++++++++..XX..#.###.. .+.. .. .$.+++++++++++++++++++",
"++++++++++++++++++++.X .+..+.#.....++...+.#..+++++++++++++++++++",
"++++++++++++++++++++.X.+++.++.++..++++.++.#..+++++++++++++++++++",
"++++++++++++++++++++...+++.++.++..++++.++...++++++++++++++++++++",
"++++++++++++++++++++..+++++.++.+.+++++.++...++++++++++++++++++++",
"+++++++++++++++++++++.++++++.+.+.++++..++..+++++++++++++++++++++",
"+++++++++++++++++++++.++++++.+.+.++++.+++.++++++++++++++++++++++",
"++++++++++++++++++++++.+++++.++..+++.+++.+++++++++++++++++++++++",
"+++++++++++++++++++++++.+++++.+..++..+++.+++++++++++++++++++++++",
"+++++++++++++++++++++++.+++++.+..++.+++.+++++++++++..+++++++++++",
"++++++++++++++++++++++++.++++.++.+.+++.+++++++++++...$++++++++++",
"+++++++++++++++O@+++++++.++++..+.+.++..++++++++++...$$$$++++++++",
"+++++++++++++++OOO@++++++.++++.+..++..++++++++++...$$$$$++++++++",
"+++++++++++++++oOOOo@++++.++++....++.++++++++++...$$$$##++++++++",
"++++++++++++++++oOOoO@@++..++++..++.++++++++++...$$$$####+++$+++",
"+++++++++++++++++ooOOOo@@+.+++++.+..+++++++++...$$$$####$$$$$+++",
"++++++++++++++++++ooOOoOO@..O@++.+.+++++++++...$$$$####$$$$$#+++",
"++++++++++++++++++++ooOOOOo..Oo@.@.++++++++...$$$$####$$$$$+++++",
"++++++++++++++++++++++oOOoOO.OoO.O.o@@@@++...+++$####$$$$$#+++++",
"+++++++++++++++++++++++ooooo.Oo.OO.oOOOOo@@.+++++###$$$$#+++++++",
"+++++++++++++++++++++++++++.oo.oO.ooooOoOOO@+++++++$$$++++++++++",
"+++++++++++++++++++++++++++++++oooo+++oo.OOO++++++++++++++++++++",
"+++++++++++++++++++++++++++++++++++++++..OOo++++++++++++++++++++",
"++++++++++++++++++++++++++++++++++++++...ooO++++++++++++++++++++",
"+++++++++++++++++++++++++++++++++++++...OOOo++++++++++++++++++++",
"+++++++++++++++++++++++++++++++@@o++...OOOo+++++++++++++++++++++",
"++++++++++++++++++++++++++++++@OoO@...oOoOo+++++++++++++++++++++",
"+++++++++++++++++++++++++++++oOOoO...OoOoo++++++++++++++++++++++",
"++++++++++++++++++++++++++++@oOOO...OOoo++++++++++++++++++++++++",
"++++++++++++++++++++++++++++OooO...Oooo+++++++++++++++++++++++++",
"++++++++++++++++++++++++++++OOoo..++++++++++++++++++++++++++++++",
"++++++++++++++++++++++++++++oOOO.+++++++++++++++++++++++++++++++",
"+++++++++++++++++++++++++++++oOOOo++++++++++++++++++++++++++++++",
"++++++++++++++++++++++++++++.oooo+++++++++++++++++++++++++++++++",
"++++++++++++++++++++++++++++..++++++++++++++++++++++++++++++++++"
};
