/* XPM */
static char *_bb0740dea8a496bf8f221eee13c0e2bQgJFhsAaUmvJNTWg[] = {
/* columns rows colors chars-per-pixel */
"64 64 6 1 ",
"  c #849537",
". c #A8733B",
"X c #849537",
"o c #F4DE35",
"O c #C1C344",
"+ c #F8E859",
/* pixels */
"                                                                ",
"                                                                ",
"                                                                ",
"                                                                ",
"                                                                ",
"                                                                ",
"                                                                ",
"                                   .                            ",
"                                  ...                           ",
"                                  .X.                           ",
"                                 .X+.                           ",
"                                  .O.                           ",
"                                  .X..                          ",
"                                 ..OX.                          ",
"                                ..o.O..                         ",
"                               ...o..O..                        ",
"                               .o.oo.oo..                       ",
"                               .o.o..ooo..                      ",
"                               .o.o..+ooo.                      ",
"                               .o.o.++ooo..                     ",
"                              .+o.o.+++ooo.                     ",
"                              .o..o..++ooo.                     ",
"                              .o.+oo.+++oo.                     ",
"                             .+o.++o.+++oo.                     ",
"                             .+o.++o.++++oo.                    ",
"                             .+o.++o.++++oo.                    ",
"                             .+o.++o.++++oo.                    ",
"                            .+oo.++o.+++++o.                    ",
"                            .+o..++o.+++++oo.                   ",
"                            .+o.+++o.+++++oo.                   ",
"                            .oo.+++o.+++++oo.                   ",
"                           .oo.++++o.+++++oo.                   ",
"                           .o.++++oo.+++++oo.                   ",
"                          .o.+++++oo.+++++oo..                  ",
"                         .o.+++++ooo.+++++ooo.                  ",
"               ...      ...++++++ooo.+++++ooo.                  ",
"             ..X+........+++++++oooo.+++++ooo.                  ",
"             .XX+++++++++++++++oooo..+++++ooo.                  ",
"             ...++++++++++++++ooooo..+++++ooo.                  ",
"               ..++++++++++ooooooo..++++++oo.                   ",
"                ..+ooooooooooooo....++++++oo.                   ",
"             .......ooooooo.....  .++++++ooo.                   ",
"             .XXoooo........oo. ..++++++ooo..                   ",
"             .Xoooooooooooooo. .+++++++oooo.                    ",
"              ......ooooooo.. .+++++++oooo..                    ",
"                    ....... ..+++++++ooooo.                     ",
"                           ..++++++oooooo.                      ",
"                       ....++++++ooooooo..                      ",
"                       .X+++++++oooooo...                       ",
"                       .X+++++ooooooo..                         ",
"                        .oooooooooo..                           ",
"                         ...........                            ",
"                                                                ",
"                                                                ",
"                                                                ",
"                                                                ",
"                                                                ",
"                                                                ",
"                                                                ",
"                                                                ",
"                                                                ",
"                                                                ",
"                                                                ",
"                                                                "
};
