/* XPM */
static char *ae8a6857f4e94624ddf72323469b1f12AN5pe8MFt2qJACMk[] = {
/* columns rows colors chars-per-pixel */
"64 64 8 1 ",
"  c #849537",
". c black",
"X c #482A16",
"o c #1D411E",
"O c #6F4224",
"+ c #5E6B26",
"@ c #FFC000",
"# c #FFBE5C",
/* pixels */
"                                                                ",
"                               OXXXX                            ",
"                         oooo OXXOXX                            ",
"                        o++++oOXO                               ",
"                       o++o+++OXOoooo                           ",
"          @..         o++o+ooo+X++o++o                          ",
"        .@.@.         o+o+++++o+o++o++o                         ",
"       @.@..@        o+++++ooooOOo+o++o                         ",
"      .@..@@         ooooooOOO###o++o+o                         ",
"      .@...            OOO#######o++o+oO                        ",
"      ..@.           OOO##########o+o+o#OOO                     ",
"       ..          OO#############o+++o####O                    ",
"                 OOOO############OOo+o######O                   ",
"                OO#OOOOOOOOOOOOOO###o########O                  ",
"               OO#O##########################O                  ",
"              OO#####################OOOOOOOOOO                 ",
"              O#################OOOOO#########O                 ",
"             O#O###########OOOOO############O#O                 ",
"            OO##OOOOOOOOOOO################OO#O                 ",
"            O#############################OO##O      ...        ",
"            O##########################OOOO###O      ..@...     ",
"            O#####################OOOOO#######O       .@..@     ",
"            OOOO######OOOOOOOOOOOOO###########O        .@@.@    ",
"            O###OOOOOO########################O         @..@.   ",
"            O#################################O          @@..   ",
"            O###############OOOO############OO            ...   ",
"            O#############OOOOOOOO#########OOO                  ",
"             O###########OOOOOXXOOO######OOO#O                  ",
"             O##########OOOXXXXXXXO####OOO###O                  ",
"              O#########OOOXXXXXXXOOOOOO####O                   ",
"              OOOOOOOO#OOOXXXXXXXXXOO.@.####O                   ",
"              O#######OOOXXXXXXXXXXO..@.@###O                   ",
"               O#######OOXXXXXXXXXXOO.@.@.@O                    ",
"               O#######OOXXXXXXXXXXOO##.@.@.                    ",
"               OO######OOXXXXXXXXXXOO###@.@..                   ",
"      ...       O######OOXXXXXXX...OO###OOO..                   ",
"    ..@..       O######OOOXXXXXXX...@#OOO#O                     ",
"  ..@.@@.        O#######OOXXXXXX.@@..###O                      ",
"   .@@.@         O#OO#####OOOOOOOO@..@@##O                      ",
" .@@....         O###OOOOOOOOOOOO##.@@.##O                      ",
"  .@.@@           O#########OOOO####@..#O                       ",
"  ..@@.           O###################.#O                       ",
"  ....             O###################O                        ",
"                   O######.###########O                         ",
"       .            O#O##...########OOO                         ",
"      ..            O##OO@@@@OOOOOOO#O                          ",
"     @@@             OO##.....#######O                          ",
"     ....             O###@@@@######O                           ",
"     @@@@              O#.....######O                           ",
"     ....              OO.@@@.#####O                            ",
"     @@@@               O##...##OOOO                            ",
"     ....                OO..OOO                                ",
"     ...                                                        ",
"      .                                                         ",
"                                                                ",
"                                                                ",
"                                                                ",
"                                                                ",
"                                                                ",
"                                         .@.@.                  ",
"                                        ..@.@..                 ",
"                                         .@.@..                 ",
"                                                                ",
"                                                                "
};
