/* XPM */
static char *c8cd36576c2b4941ab8b49c23b71e389cIB76YBHS4xL0TWN[] = {
/* columns rows colors chars-per-pixel */
"64 64 8 1 ",
"  c #849537",
". c black",
"X c #482A16",
"o c #1D411E",
"O c #6F4224",
"+ c #5E6B26",
"@ c #FFC000",
"# c #FFBE5C",
/* pixels */
"                                                                ",
"                               OXXXX                            ",
"                         oooo OXXOXX                            ",
"                        o++++oOXO                               ",
"                       o++o+++OXOoooo                           ",
"                      o++o+ooo+X++o++o                          ",
"                      o+o+++++o+o++o++o                         ",
"                     o+..@.@.ooOOo+o++o                         ",
"                     oo..@.@.O###o++o+o                         ",
"                       O...@.####o++o+oO                        ",
"                     OOO##@.@.####o+o+o#OOO                     ",
"                   OO#######@.####o+++o####O                    ",
"                 OOOO############OOo+o######O                   ",
"                OO#OOOOOOOOOOOOOO###o########O                  ",
"               OO#O##########################O                  ",
"              OO#####################OOOOOOOOOO                 ",
"              O#################OOOOO#########O                 ",
"             O#O###########OOOOO############O#O                 ",
"            OO##OOOOOOOOOOO################OO#O                 ",
"            O#############################OO##O                 ",
"            O##########################OOOO###O                 ",
"            O#####################OOOOO#######O                 ",
"            OOOO######OOOOOOOOOOOOO###########O                 ",
"            O###OOOOOO########################O                 ",
"            O############.@..#################O                 ",
"            O###########..@.@@@.############OO                  ",
"            O############.@.@.@@.O#########OOO                  ",
"             O###########OOO..@..OO######OOO#O                  ",
"             O##########OOOXXXXXXXO####OOO###O                  ",
"              O#########OOOXXXXXXXOOOOOO####O                   ",
"              OOOOOOOO#OOOXXXXXXXXXOO#######O                   ",
"              O#######OOOXXXXXXXXXXOO#######O              ...  ",
"               O#######OOXXXXXXXXXXOO######O             ..@@.  ",
"               O#######OOXXXXXXXXXXOO######O            .@@..   ",
"               OO######OOXXXXXXXXXXOO####OOO            @.@@.   ",
"                O######O..XXXXXXXXXOO###OOO            .@@..    ",
"                O######O..@.@XXXXXOOO#OOO#O            ...@.    ",
"                 O######.@..@.XXXOOOOO###O                      ",
"                 .@..####..@.@@OOO#######O                      ",
"               .@..@.OOOO.@..@.OO########O                      ",
"             @..@..@######@.@..O########O                       ",
"             @@..@..######..@..#########O                       ",
"            .@@..  O###################O                        ",
"            ..     O##################O                         ",
"                    O#O#############OOO                         ",
"   ...              O##OOOOOOOOOOOOO#O   ...                    ",
"   ..@..             OO##############O    ...@                  ",
"   .@@.@@             O#############O     .@@..                 ",
"    ..@..              O############O      @..@@                ",
"      .@..             OO##########O        .@@.                ",
"        ..              O#######OOOO         @..                ",
"                         OOOOOOO               .                ",
"                                                                ",
"                                                                ",
"                                                                ",
"                                 .@.@.                          ",
"                                ..@.@..                         ",
"                                 .@.@..                         ",
"                                                                ",
"                                                                ",
"                                                                ",
"                                                                ",
"                                                                ",
"                                                                "
};
