/* XPM */
static char *_6b5327cbea94248fb6426ccf20ab71erD20JIczxF24C3fq[] = {
/* columns rows colors chars-per-pixel */
"64 64 8 1 ",
"  c #99D8EA",
". c #162135",
"X c #3E2347",
"o c #BA6156",
"O c #83456C",
"+ c #7677AD",
"@ c #C273A5",
"# c #BEAFCC",
/* pixels */
"                                                                ",
"                                                                ",
"                                                                ",
"                                                                ",
"                                                                ",
"                                                                ",
"                                                                ",
"                                                                ",
"                                                                ",
"                                                                ",
"                                                                ",
"                                                                ",
"                                                                ",
"                                                                ",
"                                                                ",
"                                                                ",
"                                                                ",
"                                                                ",
"                                                                ",
"                                                                ",
"                                                                ",
"                                                                ",
"                                                                ",
"                                                                ",
"                                                                ",
"                                                                ",
"                                                                ",
"                                                                ",
"                                                                ",
"                                                                ",
"                                           ..                   ",
"                                          .o.                   ",
"                                         .o..                   ",
"                                       ....oo.                  ",
"                                     ..@@@O..                   ",
"                                    .@@.@@O.                    ",
"                           .        .@@@@@O.                    ",
"                    .     .@.       .@@@@.O.                    ",
"                ....o.    .O@.     .@@@@@@O.                    ",
"               .@@@.oo.   .O@@.    .@@@@@@.                     ",
"               .@.@@..XXX .OO@@.XX.@@@@@..                      ",
"              .@@@@@.X+++XX.O@O@...@@@@@.......                 ",
"            XX.O@@@@.+##X..#..O@@@@@@@@@@@@@O.XX                ",
"           X+++.O@@@..#XX.o...O@@@@@@@@@@@@O.++XXX              ",
"        XX.....+.O@@@@....o.o..OO@@@@@@@@@O.XXX++XXXXX          ",
"      XX+.O@@@@...@@@@@...@oO...@@@@@@@@OO.++XX##+++++XX        ",
"      ++##.O@@@@@@@@@@@O..@@@O..@@@@@OOO.....++X+#####++X       ",
"    +++####.OOO@@@@@@@@O..@@.@..@@@@@O........++XX++###++X      ",
"    +++#####.O@@@@@@@@O..@@@@..@@@@@@O.........+++X#++X#++X     ",
"   X++++++++X.OOO@@@@@O...O@@..@@@@@@O.........+X++X##+X#+X     ",
"   XXX+++XXX+XXXX.O@OO.....O@..@@@@@@O........++X#++##+X##+X    ",
"    #XXXX########XXXXXX...OOOO.@@@@@OOO....+++XX+##+##+X##+X    ",
"     ####++XX++++X##+XX...XXXOO.@@@@OO.OXXX+XX##+##+##+X##      ",
"      +++XX#XXXXX#+++XXXX#####XXXXXXXXXXXXX+X###+##+##+X#       ",
"      XXX#######++XXX#++X####+XXX+X##+X####+X#++X##+##+X        ",
"         ####+++XX###+XX####+X##+X###+X###+X##+X##+X##XX        ",
"        ++++++XXX##++X#####+X##+X###+X##++X##+X##+X             ",
"         XXXXX####++X####++X##+X###+X##++X+++X#++X              ",
"            ++++++XX##+++XX##+X##++X#++X++XXX  XX               ",
"             XXXXX  ++XXX++++++++XX++XX XX                      ",
"                         +XXXXXXX  XX                           ",
"                                                                ",
"                                                                ",
"                                                                "
};
