/* XPM */
static char *af3b597f75f54f269d5544221475acdacIG30mSAMZBcx0iz[] = {
/* columns rows colors chars-per-pixel */
"64 64 7 1 ",
"  c #849537",
". c #482A16",
"X c #1D411E",
"o c #6F4224",
"O c #5E6B26",
"+ c #A8733B",
"@ c #F8E859",
/* pixels */
"                                                                ",
"                XX                                              ",
"        XX    XXOX                                              ",
"        XOXX XOOOX                                              ",
"        XOOOXOOXOOX                                             ",
"        XOOOXOXOOX                                              ",
"        XOXOXXOOX       X                   XXX                 ",
"         XOXOOOX XXX   XOX                 XOOOX                ",
"          XOOOX XOOOX  XOOX               XXXXXOX               ",
"          .XXOXXXOXX...XOX..... ...............XOX....          ",
"          .ooXOOOOX+.oXOOXooooo.oooooooooo.+++.XOXooo.          ",
"          .ooXOOOX++.oXOXoooooo.oooooooooo.+++XXOXooo.          ",
"          .ooXOXX+++.oXOXoooooo.oooooooooo.++XOOXoooo.          ",
"          .ooXOX.+++.oXOXoooooo.oooooooooo.++XOXooooo.          ",
"          .ooXOX.+++.oXOXoooooo.oooooooooo.++XOXooooo.          ",
"          .oXOOX.+++.oXOOXooooo.oooooooooo.++XOXooooo.          ",
"         XXXOOXo.+++.ooXOXooooo.ooooXXXXXo.++XOOXXooo.          ",
"        XOOOOXoo.+++.ooXOXooooo.ooooXOOOOXX+++XOOXXoo.          ",
"         XXXXooo.+++.oooXOXoooo.ooooXOOOOOOX++.XOOXoo.          ",
"          .ooooo.+++.oooXOXoooo.ooooXOOXOOOOX++.XOOXo.          ",
"          .oooo.++++.oooXOOXooo.ooooXOOOXOOOOX+.oXOOXX          ",
"          .oooo.++++.ooooXOOXoo.ooooXOOOOXOOOOX.ooXOOOX         ",
"          .oooo.+++++.ooooXOOXo.ooooXOOOOOXOOOX.oooXOOOX        ",
"          .oooo.+++++.oooooXOOX.oooooXOOOOXOOOX.ooXOXXOX        ",
"          .oooo.+++++.ooooXOOOOXooooooXOOOOXOOX.ooXOOXX         ",
"          .oooo.++++.oXXXXOOXXOOXXoooooXOOOOXOXooXOOX.          ",
"          .oooo.++++XXOOOXXXooXOOOXoooooXXOOOOXoXOOXo.          ",
"          .oooo.+++XOOOOXOOXoooXXOOXooooooXXXOOXOOXoo.          ",
"          .oooo.+++XOOOXOOOXooXXXXXOXooooo.++XXOOXooo.          ",
"          .oooo.++XOOOXOOOOXoXOOOOOXXooooo.++XOOXoooo.          ",
"          .oooo.++XOOXOOOOXoXOO...OOXooooo.XXXOXooooo.          ",
"          .oooo.++XXXOOOOXoXOO@@@.XOOOXXXXXOOOOXooooo.          ",
"          .ooooo.+XXXXXXXoXOO.@@@.oXOOXXOOOOXXXoooooo.          ",
"          .ooooo.+++.ooooXOOX.....ooXOOOXOOX++.oooooo.          ",
"      XXXXXXoooo.+++.oooXOOXo..@@@.ooXOXoXX.++.oooooo.          ",
"      XOOOOOXXoo.+++.ooXOOXoo.@..@.ooXOXooo.++.oooooo.          ",
"      XOOXOOOOXo.+++.oXOOXooo.@..@.ooXOXooo.++.oooooo.          ",
"      XOOOXOOOOX.+++.XOOXooo.@....@..XOXoo.++X.oooooo.          ",
"       XOOOXXOOX.+++.XOXoooo.@@@@@@@.XOOXo.+XOX.ooooo.          ",
"        XOOOOXOXX+++XOOXoooo.@@...@@.oXOOX.+XOOXooooo.          ",
"         XOOOOOOOX+XOOXooooo.@@...@@.ooXOX.XOOOOXoooo.          ",
"          XXXXXXOXXOOXoooooo.@@@.@@@.ooXOX.XOXOXooooo.          ",
"         X.ooooXOOXOOXoooooo.@@@.@@@.ooXOX.XOXOXooooo.          ",
"        XOXoooo.XOOOXOXoooooo.@@@@@.oooXOX.+XOX.XXXoo.          ",
"        XOXXXXXXOOXXXOOXXXXooo..@@.oooooXOX+XOXXOOOXo.          ",
"        XOOOOOOOOXX+.XOXOOOXooo...ooooooXOXXXOOOXOOOX.          ",
"         XXXXXXXXX++.XOXOOOOXoo.ooooooooXOXOOOOXOXOOX.          ",
"          .oooo.++++.XOOXOOOOXo.ooooooooXOXXXXXXOOXOX.          ",
"          .ooooo.+++.XOOOXOOOXo.ooooooooXOX+++.oXOOOOX          ",
"          .ooooo.+++.oXOOOXOOXo.oooooooooXOX++.ooXXXXX          ",
"          .ooooo.+++.oXOOOOOOXo.oooooooooXOX++.oooooo.          ",
"          .ooooo.+++.ooXOOOOOXo.oooooooooXOX++.oooooo.          ",
"          .ooooo.+++.oooXXXXOXo.oooooooooXOX++.oooooo.          ",
"          .ooooo.+++.oooooooXXo.oooooooooXOX++.oooooo.          ",
"          .ooooo.+++.oooooooooo.oooooooooXOX++.oooooo.          ",
"          .ooooo.+++.oooooooooX.XoooXooooXOXX+XoXXooo.          ",
"          .oooo.++++XXoooXooXXo.oXoXXoXoXXOX++XXoXoXoXX         ",
"       XX .XooX.X+XX+XoXoXXoXXoXXXoXXXXXOXXXXXXXoXXXoX          ",
"        XXXXXXX.XXX.XXXX.XXXXXX.X..XXXXXXX.XXXXX.X.XXXXX        ",
"      XXXXXXXXXXXXXXXXXXXXXXXXXXXXXXXXXOXXXXXXXXXXXXXXX         ",
"          XX    X                      XX                       ",
"                                                                ",
"                                                                ",
"                                                                "
};
