/* XPM */
static char *_fb7bafed94a44f9e6a7b519f80747e2W1O5jVBlNlzL3K7a[] = {
/* columns rows colors chars-per-pixel */
"64 64 17 1 ",
"  c #849537",
". c #482A16",
"X c #1D411E",
"o c #6F4224",
"O c #5E6B26",
"+ c #422445",
"@ c #A8733B",
"# c #EB564B",
"$ c #3CA370",
"% c #849537",
"& c #F4DE35",
"* c #DFBE64",
"= c #8BEA63",
"- c #F8E859",
"; c #FF6B97",
": c #CFDEFF",
"> c white",
/* pixels */
"                                             XXXX               ",
"              XXXX                           XOOOXX             ",
"             XOOOOXX                         XOXOOOX            ",
"            XOOXOXOOX                        XOOXOOX            ",
"        XXXXOOXOXOOX                          XOOXOX            ",
"      ..OOOOXXOOOOX                           XOOOXX XX ..      ",
"      ...XOX  XXXX                             XXXXOXOO...      ",
"      .o.XOX                                       XOO..o.      ",
"      .oXOX                                         XOXoo.      ",
"      .XOOX..                                      .XXOXo.      ",
"     XXOXX@o........................................oXOXo.X     ",
"    XOOXoo@o.:::::::::::::::::::::::::::.@..@.:::::.oXOXo.OX    ",
"   XOOXooo@o.:::::::::::::::::::::::::::.@.:.::::::.oXOXo.XOX   ",
"   XOX.ooo@o.:::::::::>>>:::::::::::::::.@@.:::::::.oXOXo.XOOX  ",
"   XOX.ooo@o.::::::::>>>>>:::::::::::::::...:::::::.XOXoo.XOOX  ",
"  XOOX.ooo@o.:::>>>>>>>>>::::::::::::::::...:::::::.XOXoo.XOOX  ",
"  XOX .ooXXXXX>>>>>>>>>>>>>>>>>::::::::::.@.:::::::.XOOXo.XOX   ",
"  XOX .ooXX%%%XXXX>>>>>>>>X>>>:::::::::...@@..:::::.oXOXo.OOX   ",
"   XOX.oooX%%%%%%XXX>>>>XX%X>:::::::::..@@..@..::::.oXOXo.OX    ",
"   XOO.oooX%%%%%%X%XX>>X%%%%X>>>>>>>::.@@....@.::::.oXOXo.OX    ",
" XX XO.oooXX%%%%%X%X%X>X%%%%X>>>>>::::.@@....@.::::.o@XOX.X     ",
"XOOXXX.ooo@X%%%%%%%X%XX:XX%%%X>>::::::.@@....@.::::.o@XOX.      ",
"XOXOX .ooo@XXXX%%%%%X%%XXXX%%X:::::::..@@@;;@@.::::.o@XOOX      ",
"XOXOX .ooo@oX%%%%%%%%%%%X%%%%%X:::::.@.@@;;;;@.::::.o@oXOX      ",
"XOOOX .ooo@oX%XXXX%%%%%%%X%%%XX::::.@@..;;;;;;..:::.o@oXOX      ",
"XOOX  .ooo@oXXX::XXX%%%%%X%%XXX:>>.@@.>.@@@@@@@.:::.o@oXOX      ",
"XXX   .ooo@o.:XXXXXX%%%%%X%X%X%X>>.@@.>>.@@@@@@.>>:.o@oXOX      ",
"X     .ooo@o.:XX%%%%%%%%%X%%%X%%XX>.@@..;;;;;;;.:::.o@oXOOXX    ",
"      .ooo@o.::XX%%%%%%%%XXXXX%%%%X:.@@@@@;@@;@@.>>.o@XOXXOOXX  ",
"      .ooo@o.:::XXXX%%%XX%%%XXX%%%X::.....@@..@@.>>.o@XOXXXOOOX ",
"      .ooo@o.:::::.XXXXX%%%%%%%X%%XX:::::.@@.:.@.::.o@XOXXOXOOOX",
"      .ooo@o.:::::.@@..%%%%%%%XX%%%X>>>>.***@..@.::.o@XOXXOOXOOX",
"      .ooo@o.:::::.@@@.X%%%%XXX%%%%X>>>>.+*+@..@.::.o@oXoXOOOOOX",
"     ..ooo@o.:....@@@@@X%%%%%%XXXXXX>>>.@*@*@..@@.:.o@ooo.XOOOOX",
"    .-.ooo@o.:.@@..@@@@X%%%%%%%%X::::::.*.@@.*..@.:.o@ooo. XXXXX",
"   X.--ooo@o.:.@@@..@@.X%XX%%%%%X:::::::.:..:.::.::.o@ooo.      ",
"  XOXX-ooo@o.:.@@@@...&XXX%%X%%%XX:::::::::::::::::.o@ooo.      ",
" XOOOOXXoo@o.:.@@@@@@.&.XX%XXX%%%X::::XXX::::::::::.o@ooo.      ",
"  X...OOXo@o...@@@@..&&-X%%X:X%%%X::XX===X::::$$:::.o@ooo.      ",
"  .---.OXo@o........&&&-XX%X:X%%%%XX=o=o=X::::$$$::.o@ooo.      ",
"  .-.-.OXo@o.@@.&&&&&&--.&XX:X%X%%X======X:::::$$::.o@ooo.      ",
"  .-...OXo@o.@@..&&&&--&&&.::XXX%%XX=#====X:::::o::.o@ooo.      ",
" .----.XOX@o.@@@...&---&-&.:::::XXX:#XX===XXX#:o:#:.o@ooo.      ",
" ....--.OX@o.@@@.&&---&-&.:::::::::#:::X==XX=X#o###.o@ooo.      ",
" ....--.OX@o....&----&--&.:::::XX::X::X===XX==#####.o@ooo.      ",
" .-.---OXo@o.@@@.&&&&--&X:::::XXX:XOXXX==XXOX=====X.o@ooo.      ",
" .----.OXo@o.@@@@...--&.%XX::XXXXXOOX====XOO######X.o@ooo.      ",
"  .....OXo@o.@@..%%.&&.%%%X:XXOX%XOX====XXXOO#X===X.o@ooo.      ",
"      XOXo@o...@@..X..X%%%X:XOOX%XX===XXOOXOOX==XXO.o@ooo.      ",
"     XOXoo@o.@@@@@.XOOX%%%%XOOOX%XX==X%XOOXOOX==XOO.o@ooo.      ",
"    XOOXoo@o.@@@@.%XOOX%%%%XOOXX%XX==X%XOOXOOX==XOO.o@ooo.      ",
"   XOOOXoo@o.@.@.%%XOOOX%%%XOOX%%XX==X%XOOXOOXX==XO.o@ooo.      ",
"   XOXXOXX@o.....%%XOOOX%%XOOOX%%XOX==XXOOXOOOX==XO.o@ooo.      ",
"   XOXXXOOXo.@@@@.%XOOOX%%XOOOX%%XOX====XXXXOOX===X.o@ooo.      ",
"  XOX XOXOOX.@@@.%%XOOOX%%XOXOX%%XOOX=======XX====X.o@ooo.      ",
"  XOX XOOOOX.@@.%%%XOOOX%%XOXXXXXXOXXXXXX=X=X=X==XO.o@ooo. XX   ",
"  XOXX.XOOOX.X..X%%XXXXXX%XOXOXXXOXXXX%XXXXXXXXXXOO.o@ooo.XX    ",
"  XOXX.oXXXX..XXX.X.X.X..X.XXXXX..XXXX.XX.XXXX..XXX.o@ooo.X     ",
"   X X.ooo...XXXXXXXXXXXXXXXXXXXXXXXXXXXXXXXXXXXXXXX..ooo.X     ",
"      .oo..XXXXXXXXXXXXXXXXXXXXXXXXXXXXXXXXXXXXXXXXXX..oo.      ",
"      .o..                                            ..o.      ",
"      ...                                              ...      ",
"      ..                                                ..      ",
"                                                                "
};
