/* XPM */
static char *bafa1363490846f5bc077b8c7aac0491EWMiqqI5UKPw4p6w[] = {
/* columns rows colors chars-per-pixel */
"64 64 5 1 ",
"  c #849537",
". c #482A16",
"X c #6F4224",
"o c #A8733B",
"O c #DFBE64",
/* pixels */
"                                                                ",
"                                                                ",
"                                                                ",
"                                                                ",
"                                                                ",
"                                                                ",
"                                                                ",
"                                                                ",
"                                                                ",
"                                                                ",
"                                                                ",
"                                                                ",
"                                                                ",
"                                                                ",
"                                                ......          ",
"                                               ....XX...        ",
"                                              ..OOO.oXX.        ",
"                                             ...OOOOoooX.       ",
"                                             .X.OOOOoooo.       ",
"    .........                               .XX.OO.oooooo.      ",
"   .XXXXXXXXX.                             ..XXX...oooOOo.      ",
"  ..Xoooooooo.                      .......X.XXXXXooooOOX.      ",
"  .Xoo.....ooX.          ...........ooooXXXX.XXoooooo..OX.      ",
" .Xooo.    .ooX. ........ooooooooooooooooXXX.XoooooooO.OX.      ",
" .oo..      .oo...ooooooooooooooooooooooooXX.oooooooOOOOOX.     ",
".ooo.       .oo..ooooooooooooooooooooooooooX.oooooooOOOOOO.     ",
".oo.        .ooooooooooooooooooooooooooooooX..ooooooOO.OOO.     ",
".oo.         ..ooooooooooooooooooooooooooooXX..oooooOOO....     ",
".oo.          .oooooooooooooooooooooooooooooXX..oooooOOOOO.     ",
".oo.          .ooooooooooooooooooooooooooooooX.......OO...      ",
".oo.         .ooooooooooooooooooooooooooooooo.       ..         ",
".oo.         .oooooo.oooooooooooooooooooooooo.                  ",
".oo.         .ooooooo.oooooooooooo.oooooooo....                 ",
" .oo.        .ooooooo.oooooooooooX.ooooooo.XXX.                 ",
" .Xo.        .oooooooo.oooooooooXX.ooooooo.Xoo.                 ",
" .Xoo.       ..ooooooo.ooo.........oooooo.XXooo.                ",
"  .Xoo.       .Xooooooo....X.     .ooooo. .Xooo.                ",
"   .Xoo.       .Xoooooo..XX..     .ooooo. .Xooo..               ",
"   ..Xo.       ..XXooooo.X.       .oooo.  .Xoooo.               ",
"    .Xoo.     .XX..ooooo..        .oooo.   .Xooo..              ",
"     .Xoo.    .XX..Xoooo..        .ooo.    ..Xooo.              ",
"     ..oo.   .ooXXX.Xoooo.       .Xooo.     .Xooo..             ",
"      .oo.   .oooXX..Xooo.       .Xooo.     ..Xooo.             ",
"      .oo.  .oooo.. .Xooo.       .Xoo.       .Xoooo.            ",
"      .oo. ..ooo.   .Xooo.      .Xooo.        .Xooo.            ",
"      .oo. ..oo.    .Xooo.      .Xoo.         ..Xoo..           ",
"     .Xoo. .Xo..    .Xooo.      .Xo..          .Xooo.           ",
"     .Xoo. .Xo.    ..Xooo.      .Xo.            .Xooo.....      ",
"    ..Xo.  .Xo.    .Xoooo.     .Xo.             ..Xooooo..      ",
"    .Xoo.  .Xo.     .Xooo.     .Xo..             ..XXoX..       ",
"   ..Xo.   ..X...   .XXoo....  .XXoo.             ...X..        ",
"   .Xoo.    .XXoo.  ..XXoooo.  .XXXXo.              ..          ",
"   .Xo.     .....    ........   .....                           ",
"   ..o.                                                         ",
"    ..                                                          ",
"                                                                ",
"                                                                ",
"                                                                ",
"                                                                ",
"                                                                ",
"                                                                ",
"                                                                ",
"                                                                ",
"                                                                "
};
