/* XPM */
static char *_24ac446de1045efea5aec967d2de5edq9AVXwujFTbGnyrg[] = {
/* columns rows colors chars-per-pixel */
"64 64 5 1 ",
"  c #849537",
". c #482A16",
"X c #6F4224",
"o c #A8733B",
"O c #DFBE64",
/* pixels */
"                                                                ",
"                                                                ",
"                                                                ",
"                                                                ",
"                                                                ",
"                                                                ",
"                                                                ",
"                                                                ",
"                                                                ",
"                                                                ",
"                                                                ",
"                                                                ",
"                                                                ",
"                                                                ",
"                                                                ",
"                                                                ",
"                                               .... ..          ",
"                                               .OOO.X...        ",
"                                              ..OOO.XXXX.       ",
"                                             ...OOoooooX..      ",
"        ...                                 ..X..Oooooooo.      ",
"     ...XXX..                            ....XXXXoooooooo..     ",
"   ..XXXoooX...       ...................XXX.XXXoooooooOOo.     ",
"   .XooooooooX..   ....ooooooooooooooooooXXX.XXoooooooOOOo.     ",
"  ..oo......ooX.  ..oooooooooooooooooooooooX.Xoooooooo..OX.     ",
"  .oo..    ..oo...oooooooooooooooooooooooooo.XooooooooO.OX.     ",
"  .o..      .ooX.ooooooooooooooooooooooooooo.XoooooooOOOOX.     ",
" ..o.        .ooooooooooooooooooooooooooooooo.ooooooOOOOOOX.    ",
" .oo.        ..oooooooooooooooooooooooooooooo..oooooOOOOOOO.    ",
" .oo.         .oooooooooooooooooooooooooooooo. .ooooOO.OOOO.    ",
" .oo.         .oooooooooooooooooooooooooooooo.  .oooOOO.....    ",
" .oo.         .oooooooooooooooooooooooooooooo.   ...oOOOO...    ",
" .oo.         .oooooooooooooooooooooooooooooo.    ........      ",
"  .o..        .oooooooooooooooooooooooooooooo.                  ",
"  .oo..       .oooooooooooooooooooooooooooooo.                  ",
"  .ooo.       .ooooooooo.o.........oooooooooo.                  ",
"   .oo..      .ooooooo..X.X.      ..ooooooooo.                  ",
"   .ooo..     .ooooooo.XXX.        ..oooooooo..                 ",
"   ..ooo..    .oooooo..X..         ...oooooooo.                 ",
"    ..ooo.   .oooooo..XX.          .X..ooooooo.                 ",
"     ..oo..  .oooooo.XX.          .XXXX.oooooo.                 ",
"      .ooo. ..ooooo..XX.          .XXXX..ooooo.                 ",
"      .ooo. .ooooo. .XX.          .XXXX...ooooo.                ",
"      .ooo. .oooo.. .XX.         ..XXX.  ..oooo.                ",
"      .oo. ..oooo.  .Xo.         .XXoo.   .oooo.                ",
"      .oo. .oooo.   .Xo.         .ooo.    ..ooo.                ",
"     ..oo. .ooo.    .ooo.       ..oo..     .ooo..               ",
"     .Xo.. .ooo.     .oo.       .ooo.       .ooo.               ",
"    ..o..  .ooo.     .oo..      .ooo.       ..oo..              ",
"  ..Xo..   .ooo....  .ooo..     .ooo.         .oo.....          ",
"  .XXo.     .ooooo.. .oooo..    .ooo....       .ooooo.          ",
"  .Xoo.     .ooooo.. .......    ..ooooo.       ..ooo.           ",
"  .Xoo.      ...o..       ..     ..ooo..        ....            ",
"   .oo..       ..                  ....                         ",
"   ..oo.                                                        ",
"    ....                                                        ",
"                                                                ",
"                                                                ",
"                                                                ",
"                                                                ",
"                                                                ",
"                                                                ",
"                                                                ",
"                                                                "
};
