/* XPM */
static char *c664a46e5ccd4b38a10c655f484de37csMVpxbNCHvsbvcz4[] = {
/* columns rows colors chars-per-pixel */
"64 64 8 1 ",
"  c #99D8EA",
". c black",
"X c #2F2555",
"o c #3F3F74",
"O c #AC3232",
"+ c #D95763",
"@ c #CBDBFC",
"# c white",
/* pixels */
"                                                                ",
"                                                                ",
"            X                                   o               ",
"            X                                   o               ",
"           XX                                  oo               ",
"           XX                                  oo               ",
"           XXX                                ooo               ",
"           XXX                                ooo               ",
"           XXX                               oooo               ",
"          XXXXX                             ooooo               ",
"          XXXXX                            ooooo                ",
"          XXXXX                           @ooooo                ",
"          XXXXXX                         @oooooo                ",
"          ooooXX                        @@oooooo                ",
"          oooooooo                     @@ooooooo                ",
"        ooooooooooo                   @@oooooooo                ",
"       ooooooooooooo                 @@ooooooooo                ",
"       ooooooooooooo                #@oooooooooo                ",
"      oo#ooooo###oooo              #@@oooooooooo                ",
"      o##ooooo####ooo             #@@ooooooooooo                ",
"      o#.ooooo..##oooX          ##@@oooooooooooo                ",
"      o#.ooooo..##oooXX      XX##@@oooooooooooo                 ",
"      ooooooooo##ooooXXXXXXXX###@@ooooooooooooo                 ",
"      ooo+++ooooooooo@#XXX#####@@ooooooooooooo                  ",
"       o++++Oooooooo@##########@oooooooooooooo                  ",
"       ++++OOooooooo@########@@ooooooooooooooo                  ",
"       +++OOoooooo@@@########@ooooooooooooooo                   ",
"      +++OOoooo@@@@@########@@oooooooooooooo                    ",
"      ++OO    @@@@@@#######@@ooooooooooooooo                    ",
"     ++O      @@@@@########@ooooooooooooooo                     ",
"              @@@@#########@ooooooooooooooo                     ",
"              @@@##########@oooooooooooooo                      ",
"               @###########@@oooooooooooo                       ",
"               #############@oooooooooo                         ",
"                ############@@oooooooo                          ",
"                #############@oooooooo                          ",
"                 #############@ooooooo                          ",
"                 ##############oooooooX                         ",
"                  #############@ooooooXX                        ",
"                   #############ooooooXXX                       ",
"                    ############ooooooXXX                       ",
"                     ###########oooooXXXXX                      ",
"                       ######+##oooooXXXXXX                     ",
"                 ++      #+##+##ooooXXXXXXXX                    ",
"                  ++    +  +#+#oooo  XXXXXXXXX                  ",
"                   ++  +   +++ooo     XXXXXXXXX                 ",
"                     +++    ++        XXXXXXXXXX                ",
"                  +++++      +         XXXXXXXXXX               ",
"                       +     +          XXXXXXXXXX              ",
"                                         XXXXXXXXXX             ",
"                                          XXXXXXXXXX            ",
"                                           XXXXXXXXXX           ",
"                                            XXXX XXXXX          ",
"                                            XXXXX  XXXX         ",
"                                             XXXX   XXXX        ",
"                                              XXXX    XXX       ",
"                                               XXXX     XX      ",
"                                                XXX       XX    ",
"                                                 XXX       XX   ",
"                                                  XXX           ",
"                                                    XX          ",
"                                                                ",
"                                                                ",
"                                                                "
};
