/* XPM */
static char *_0566e73bbf34c5ed699cf213e44cb04xZoP3pP51L35rHYM[] = {
/* columns rows colors chars-per-pixel */
"64 64 5 1 ",
"  c #849537",
". c #482A16",
"X c #6F4224",
"o c #A8733B",
"O c #DFBE64",
/* pixels */
"                                                                ",
"                                                                ",
"                                                                ",
"                                                                ",
"                                                                ",
"                                                                ",
"                                                                ",
"                                                                ",
"                                                                ",
"                                                                ",
"                                                                ",
"                                                                ",
"                                                                ",
"                                   ...                          ",
"                                  ..XX..                        ",
"                                ..XXXXX..                       ",
"                             ....XXXoooX.                       ",
"                             .O.XXooooooo.                      ",
"                             .OOXoooOXoXO..                     ",
"                             .OOXooOOoXoOO.                     ",
"                            .OOOooo..OXO...                     ",
"                           ...XXoooO.OXO.O.                     ",
"                          .XX...ooOOOOXOOO.                     ",
"                         ..oXXX..oOOO.O.OO.                     ",
"                        .ooooXXX.oO.OOOOO...                    ",
"                       .ooooooXXX.OO....O.o.                    ",
"                      .oooooooooX..OOOOO..o.                    ",
"                     ..ooooooooooX.......oo.                    ",
"                    ..oooooooooooX.XXXXX.oo.                    ",
"                   ..ooooooooooooo.XoXX..oo.                    ",
"                   .ooooooooooooooXXoX..oo..                    ",
"                  .oooooooooooooooXoo..oo..                     ",
"                  .oXXXXooooooooooXoo.oo..                      ",
"                 .oo....Xooooooooooo..o..                       ",
"                 .o.ooo.Xoooooooooooooo.                        ",
"           ...  ..oooooo.Xooooooo......                         ",
"        ...ooo...ooooooo.Xoooooo...                             ",
"      ..oooXXXXX.ooooooo.Xooooo.XX.                             ",
"     .oooXX..XXX.ooooooo.Xoooo..XX.                             ",
"    .ooXX..  ..X.ooooooo..Xooo.XXX.                             ",
"    .oX..      ..oooooooo..Xoo.XX..                             ",
"   .oo.         .ooooooooo.Xoo.X..                              ",
"   .oo.         .ooooooo....Xoo..                               ",
"   .oo.          ..ooo...XX.Xoo.                                ",
"   .oo.           .....XXXX.XXo..                               ",
"   .ooo.             .XXX.. .Xoo..                              ",
"    .Xoo.             ....  ..Xoo..                             ",
"     .Xoo..                  ..Xooo..                           ",
"      .Xooo............        ..Xoo..                          ",
"       .XXooooooooooooo..       .Xooo.                          ",
"        ..XXXXXXXXXXXXooo.       .....                          ",
"          ............Xooo.                                     ",
"        ..           ..ooX.                                     ",
"       .oo.      ....oooX.                                      ",
"       .Xoo......oooooXX.                                       ",
"        .XooooooooXXX...                                        ",
"         .XXXXXXXX...                                           ",
"          ........                                              ",
"                                                                ",
"                                                                ",
"                                                                ",
"                                                                ",
"                                                                ",
"                                                                "
};
