/* XPM */
static char *_2af41d71e1e41fdb38097aec98998e32U6mRl7FFLo1eOEY[] = {
/* columns rows colors chars-per-pixel */
"64 64 5 1 ",
"  c #849537",
". c #482A16",
"X c #6F4224",
"o c #A8733B",
"O c #F7CB5E",
/* pixels */
"                                                                ",
"                                                                ",
"                                                                ",
"                                                                ",
"                                                                ",
"                                                                ",
"                                       .....                    ",
"                                    ...ooooo...                 ",
"                                   .XXooooooooo.                ",
"                                  .Xooo....XXooo.               ",
"                                 .Xooo.    ..Xooo.              ",
"                            .   .Xooo..      ..ooo.             ",
"                           .o.  .Xoo.          .ooo.            ",
"                          .oo.  .Xoo.           .ooo.           ",
"                          .oo.  .Xoo.            .ooo.          ",
"                          .ooX. .Xoo.            .Xoo.          ",
"                          .ooX. .Xoo.             .Xoo.         ",
"                          .ooX. .Xoo.              .Xo.         ",
"                          .XoX...Xooo...           .XX.         ",
"                         .XooooXXXoooXXo.           ..          ",
"                         .XoooooXooooXooo.                      ",
"                         .Xooooooooooooooo.                     ",
"                         .oooooooooooooooo.                     ",
"                        .oooooooooooooooooX.                    ",
"                        .oooooooooooooooooX.                    ",
"                        .oooooooooooooooooX.                    ",
"                         .ooooooooooooooooX.                    ",
"                         .oooooooooooooooX.                     ",
"                         ..ooooooooooooooX.                     ",
"                          ..oooooooooooooX.                     ",
"                           .oooooooooooooX.                     ",
"                           .oooooooooooooo.                     ",
"                           .oooooooooooooo.                     ",
"                           .oooooooooooooo.                     ",
"                           .oooooooooooooo.                     ",
"                          ..ooooooooooooooo.                    ",
"                          .oooooooooooooooo.                    ",
"                          .oooooooooooooooo.                    ",
"                         .XoooooooooooooooX.                    ",
"                       ..XoooooooooooooooX.                     ",
"                       .XooooooooooooooooX.                     ",
"                       .oooooooooooooooooX.                     ",
"                       .ooooooooooooooooX.                      ",
"                       .oooooooooooooooX.                       ",
"                       .ooooXXooooooooX.                        ",
"                       .ooo..Xooooooo..                         ",
"                       .ooo. .Xoooooo.                          ",
"                       .oo.   .XoooooX.                         ",
"                      ..oo.   .XooooooX.                        ",
"                      ..o.   .XooooooooX.                       ",
"                      .X..  .XoooooooooXX.                      ",
"                      .XX. .XoooooooooooXO.                     ",
"                      ... .OXoooooooooooXO.                     ",
"                          .OoooooooooooooO.                     ",
"                          .OooXXXooXXoooo.                      ",
"                           ..XOOOXOOOXX..                       ",
"                             ..OOOOOOO..                        ",
"                              .OOXOOO..                         ",
"                               .......                          ",
"                                                                ",
"                                                                ",
"                                                                ",
"                                                                ",
"                                                                "
};
