/* XPM */
static char *_b64190d373a466b9e1b33f101aa8619qAFYB2o49YjsLPJ1[] = {
/* columns rows colors chars-per-pixel */
"64 64 5 1 ",
"  c #849537",
". c #482A16",
"X c #6F4224",
"o c #A8733B",
"O c #DFBE64",
/* pixels */
"                                                                ",
"                                                                ",
"                                                                ",
"                                                                ",
"                                                                ",
"                                                                ",
"                                                                ",
"                                                                ",
"                                                                ",
"                                                                ",
"                                                                ",
"                                                                ",
"                                                                ",
"                                                                ",
"          ......                                                ",
"        ...XX....                                               ",
"        .XXo.OOO..                                              ",
"       .XoooOOOO...                                             ",
"       .ooooOOOO.X.                                             ",
"      .oooooo.OO.XX.                               .........    ",
"      .oOOooo...XXX..                             .XXXXXXXXX.   ",
"      .XOOooooXXXXX.X.......                      .ooooooooX..  ",
"      .XO..ooooooXX.XXXXoooo...........          .Xoo.....ooX.  ",
"      .XO.OoooooooX.XXXoooooooooooooooo........ .Xoo.    .oooX. ",
"     .XOOOOOooooooo.XXoooooooooooooooooooooooo...oo.      ..oo. ",
"     .OOOOOOooooooo.Xoooooooooooooooooooooooooo..oo.       .ooo.",
"     .OOO.OOoooooo..Xoooooooooooooooooooooooooooooo.        .oo.",
"     ....OOOooooo..XXoooooooooooooooooooooooooooo..         .oo.",
"     .OOOOOooooo..XXooooooooooooooooooooooooooooo.          .oo.",
"      ...OO.......Xoooooooooooooooooooooooooooooo.          .oo.",
"         ..       .ooooooooooooooooooooooooooooooo.         .oo.",
"                  .oooooooooooooooooooooooo.oooooo.         .oo.",
"                 ....oooooooo.oooooooooooo.ooooooo.         .oo.",
"                 .XXX.ooooooo.Xooooooooooo.ooooooo.        .oo. ",
"                 .ooX.ooooooo.XXooooooooo.oooooooo.        .oX. ",
"                .oooXX.oooooo.........ooo.ooooooo..       .ooX. ",
"                .oooX. .ooooo.     .X....oooooooX.       .ooX.  ",
"               ..oooX. .ooooo.     ..XX..ooooooX.       .ooX.   ",
"               .ooooX.  .oooo.       .X.oooooXX..       .oX..   ",
"              ..oooX.   .oooo.        ..ooooo..XX.     .ooX.    ",
"              .oooX..    .ooo.        ..ooooX..XX.    .ooX.     ",
"             ..oooX.     .oooX.       .ooooX.XXXoo.   .oo..     ",
"             .oooX..     .oooX.       .oooX..XXooo.   .oo.      ",
"            .ooooX.       .ooX.       .oooX. ..oooo.  .oo.      ",
"            .oooX.        .oooX.      .oooX.   .ooo.. .oo.      ",
"           ..ooX..         .ooX.      .oooX.    .oo.. .oo.      ",
"           .oooX.          ..oX.      .oooX.    ..oX. .ooX.     ",
"      .....oooX.            .oX.      .oooX..    .oX. .ooX.     ",
"      ..oooooX..             .oX.     .ooooX.    .oX.  .oX..    ",
"       ..XoXX..             ..oX.     .oooX.     .oX.  .ooX.    ",
"        ..X...             .ooXX.  ....ooXX.   ...X..   .oX..   ",
"          ..              .oXXXX.  .ooooXX..  .ooXX.    .ooX.   ",
"                           .....   ........    .....     .oX.   ",
"                                                         .o..   ",
"                                                          ..    ",
"                                                                ",
"                                                                ",
"                                                                ",
"                                                                ",
"                                                                ",
"                                                                ",
"                                                                ",
"                                                                ",
"                                                                "
};
