/* XPM */
static char *_6b42b8d30c548379b0ee7a30837e919zwKaNa3zAUAlQNZa[] = {
/* columns rows colors chars-per-pixel */
"64 64 5 1 ",
"  c #849537",
". c #482A16",
"X c #6F4224",
"o c #A8733B",
"O c #F7CB5E",
/* pixels */
"                                                                ",
"                                                                ",
"                                                                ",
"                                                                ",
"                                                                ",
"                          .......                               ",
"                         ..OOOXOO.                              ",
"                        ..OOOOOOO..                             ",
"                       ..XXOOOXOOOX..                           ",
"                      .ooooXXooXXXooO.                          ",
"                     .OoooooooooooooO.                          ",
"                     .OXoooooooooooXO. ...                      ",
"                     .OXoooooooooooX. .XX.                      ",
"                      .XXoooooooooX.  ..X.                      ",
"                       .XooooooooX.   .o..                      ",
"                        .XooooooX.   .oo..                      ",
"                         .XoooooX.   .oo.                       ",
"                          .ooooooX. .ooo.                       ",
"                         ..oooooooX..ooo.                       ",
"                        .XooooooooXXoooo.                       ",
"                       .Xooooooooooooooo.                       ",
"                      .Xoooooooooooooooo.                       ",
"                     .Xooooooooooooooooo.                       ",
"                     .XooooooooooooooooX.                       ",
"                     .XoooooooooooooooX..                       ",
"                    .XoooooooooooooooX.                         ",
"                    .oooooooooooooooo.                          ",
"                    .oooooooooooooooo.                          ",
"                    .ooooooooooooooo..                          ",
"                     .oooooooooooooo.                           ",
"                     .oooooooooooooo.                           ",
"                     .oooooooooooooo.                           ",
"                     .oooooooooooooo.                           ",
"                     .Xooooooooooooo.                           ",
"                     .Xooooooooooooo..                          ",
"                     .Xoooooooooooooo..                         ",
"                     .Xooooooooooooooo.                         ",
"                    .Xoooooooooooooooo.                         ",
"                    .Xooooooooooooooooo.                        ",
"                    .Xooooooooooooooooo.                        ",
"                    .Xooooooooooooooooo.                        ",
"                     .oooooooooooooooo.                         ",
"                     .oooooooooooooooX.                         ",
"                      .oooXooooXoooooX.                         ",
"          ..           .oXXoooXXXooooX.                         ",
"         .XX.           ...oooX...XoX.                          ",
"         .oX.              .ooX. .Xoo.                          ",
"         .ooX.             .ooX. .Xoo.                          ",
"          .ooX.            .ooX. .Xoo.                          ",
"          .ooo.            .ooX.  .oo.                          ",
"           .ooo.           .ooX.  .oo.                          ",
"            .ooo.          .ooX.  .o.                           ",
"             .ooo..      ..oooX.   .                            ",
"              .oooX..    .oooX.                                 ",
"               .oooXX....oooX.                                  ",
"                .oooooooooXX.                                   ",
"                 ...ooooo...                                    ",
"                    .....                                       ",
"                                                                ",
"                                                                ",
"                                                                ",
"                                                                ",
"                                                                ",
"                                                                "
};
