/* XPM */
static char *_0ead9f6c9294011bce38b67b5ae01a5haLmcvY5Bg9DB00f[] = {
/* columns rows colors chars-per-pixel */
"64 64 5 1 ",
"  c #849537",
". c #482A16",
"X c #6F4224",
"o c #A8733B",
"O c #DFBE64",
/* pixels */
"                                                                ",
"                                                                ",
"                                                                ",
"                                                                ",
"                                                                ",
"                                                                ",
"                                                                ",
"                                                                ",
"                                                                ",
"                                                                ",
"                                                                ",
"                                                                ",
"                                                                ",
"                                                                ",
"                                                                ",
"                                                                ",
"          .. ....                                               ",
"        ...X.OOO.                                               ",
"       .XXXX.OOO..                                              ",
"      ..XoooooOO...                                             ",
"      .oooooooO..X..                                 ...        ",
"     ..ooooooooXXXX....                            ..XXX...     ",
"     .oOOoooooooXXX.XXX...................       ...XoooXXX..   ",
"     .oOOOoooooooXX.XXXoooooooooooooooooo....   ..XooooooooX.   ",
"     .XO..ooooooooX.Xooooooooooooooooooooooo..  .Xoo......oo..  ",
"     .XO.OooooooooX.oooooooooooooooooooooooooo...oo..    ..oo.  ",
"     .XOOOOoooooooX.ooooooooooooooooooooooooooo.Xoo.      ..o.  ",
"    .XOOOOOOoooooo.ooooooooooooooooooooooooooooooo.        .o.. ",
"    .OOOOOOOooooo..oooooooooooooooooooooooooooooo..        .oo. ",
"    .OOOO.OOoooo. .oooooooooooooooooooooooooooooo.         .oo. ",
"    .....OOOooo.  .oooooooooooooooooooooooooooooo.         .oo. ",
"    ...OOOOo...   .oooooooooooooooooooooooooooooo.         .oo. ",
"      ........    .oooooooooooooooooooooooooooooo.         .oo. ",
"                  .oooooooooooooooooooooooooooooo.        ..o.  ",
"                  .oooooooooooooooooooooooooooooo.       ..oo.  ",
"                  .oooooooooo.........o.ooooooooo.       .ooo.  ",
"                  .ooooooooo..      .X.X..ooooooo.      ..oo.   ",
"                 ..oooooooo..        .XXX.ooooooo.     ..ooo.   ",
"                 .oooooooo...         ..X..oooooo.    ..ooo..   ",
"                 .ooooooo..X.          .XX..oooooo.   .ooo..    ",
"                 .oooooo.XXXX.          .XX.oooooo.  ..oo..     ",
"                 .ooooo..XXXX.          .XX..ooooo.. .ooo.      ",
"                .ooooo...XXXX.          .XX. .ooooo. .ooo.      ",
"                .oooo..  .XXX..         .XX. ..oooo. .ooo.      ",
"                .oooo.   .ooXX.         .oX.  .oooo.. .oo.      ",
"                .ooo..    .ooo.         .oX.   .oooo. .oo.      ",
"               ..ooo.     ..oo..       .ooo.    .ooo. .oo..     ",
"               .ooo.       .ooo.       .oo.     .ooo. ..oX.     ",
"              ..oo..       .ooo.      ..oo.     .ooo.  ..o..    ",
"          .....oo.         .ooo.     ..ooo.  ....ooo.   ..oX..  ",
"          .ooooo.       ....ooo.    ..oooo. ..ooooo.     .oXX.  ",
"           .ooo..       .ooooo..    ....... ..ooooo.     .ooX.  ",
"            ....        ..ooo..              ..o...      .ooX.  ",
"                         ....                  ..       ..oo.   ",
"                                                        .oo..   ",
"                                                        ....    ",
"                                                                ",
"                                                                ",
"                                                                ",
"                                                                ",
"                                                                ",
"                                                                ",
"                                                                ",
"                                                                "
};
