/* XPM */
static char *da27908337414c62a123d1d0630ad290jRyYy6cghenJRfoE[] = {
/* columns rows colors chars-per-pixel */
"64 64 5 1 ",
"  c #849537",
". c #482A16",
"X c #6F4224",
"o c #A8733B",
"O c #F7CB5E",
/* pixels */
"                                                                ",
"                                                                ",
"                                                                ",
"                                                                ",
"                                                                ",
"                                                                ",
"                                      .....                     ",
"                                   ...ooooo...                  ",
"                                  .XXooooooooo.                 ",
"                                 .Xooo....XXooo.                ",
"                                .Xooo.    ..Xooo.               ",
"                               .Xooo....    ..ooo.              ",
"                               .Xoo. .oo.     .ooo.             ",
"                               .Xoo. .ooo.     .ooo.            ",
"                               .Xoo. .Xooo.     .ooo.           ",
"                               .Xoo.  .Xoo.     .Xoo.           ",
"                               .Xoo.  .Xoo.      .Xoo.          ",
"                               .Xoo. .Xooo.       .Xo.          ",
"                          ......Xooo..Xooo.       .XX.          ",
"                         .XXXXXXXoooXXoooo.        ..           ",
"                        .XXooooXooooXooooo.                     ",
"                        .Xoooooooooooooooo.                     ",
"                        .ooooooooooooooooX.                     ",
"                       .oooooooooooooooooX.                     ",
"                       .oooooooooooooooooX.                     ",
"                       .oooooooooooooooooX.                     ",
"                        .ooooooooooooooooX.                     ",
"                        .oooooooooooooooX.                      ",
"                        ..ooooooooooooooX.                      ",
"                         ..oooooooooooooX.                      ",
"                          .oooooooooooooX.                      ",
"                          .oooooooooooooX.                      ",
"                          .oooooooooooooX.                      ",
"                          .oooooooooooooX.                      ",
"                          .oooooooooooooX.                      ",
"                          .ooooooooooooooX.                     ",
"                          .ooooooooooooooX.                     ",
"                         .Xooooooooooooooo.                     ",
"                         .oooooooooooooooo.                     ",
"                         .oooooooooooooooo.                     ",
"                         .Xooooooooooooooo.                     ",
"                         .Xooooooooooooooo.                     ",
"                         .Xooooooooooooooo.                     ",
"                          .oooooooooooXooo.                     ",
"                          .XXooooooooX.ooo.                     ",
"                           .Xooooooo....oo.                     ",
"                            .Xoooooo.   .o.                     ",
"                             .XoooooX.  .oo.                    ",
"                             .XooooooX. .o..                    ",
"                            .XooooooooX...X.                    ",
"                           .XoooooooooXX.XX.                    ",
"                          .XoooooooooooXO..                     ",
"                         .OXoooooooooooXO.                      ",
"                         .OoooooooooooooO.                      ",
"                         .OooXXXooXXoooo.                       ",
"                          ..XOOOXOOOXX..                        ",
"                            ..OOOOOOO..                         ",
"                             .OOXOOO..                          ",
"                              .......                           ",
"                                                                ",
"                                                                ",
"                                                                ",
"                                                                ",
"                                                                "
};
