/* XPM */
static char *e2f3447e8e4d44c291b72ab809b90e4d1b2y7cFBMpt3N5Mb[] = {
/* columns rows colors chars-per-pixel */
"64 64 5 1 ",
"  c #849537",
". c #482A16",
"X c #6F4224",
"o c #A8733B",
"O c #F7CB5E",
/* pixels */
"                                                                ",
"                                                                ",
"                                                                ",
"                                                                ",
"                                                                ",
"                           .......                              ",
"                          ..OOOXOO.                             ",
"                         ..OOOOOOO..                            ",
"                        ..XXOOOXOOOX..                          ",
"                       .ooooXXooXXXooO.                         ",
"                      .OoooooooooooooO.                         ",
"                      .OXoooooooooooXO.                         ",
"                     ..OXoooooooooooX.                          ",
"                    .XX.XXoooooooooX.                           ",
"                    .X...XooooooooX.                            ",
"                    ..o. .XooooooX.                             ",
"                    .oo.  .XoooooX.                             ",
"                     .o.   .ooooooX.                            ",
"                     .oo....oooooooX.                           ",
"                     .ooo.XooooooooXX.                          ",
"                     .oooXooooooooooo.                          ",
"                     .oooooooooooooooX.                         ",
"                     .oooooooooooooooX.                         ",
"                     .oooooooooooooooX.                         ",
"                     .oooooooooooooooo.                         ",
"                     .oooooooooooooooo.                         ",
"                     .oooooooooooooooX.                         ",
"                     .Xoooooooooooooo.                          ",
"                     .Xoooooooooooooo.                          ",
"                      .Xooooooooooooo.                          ",
"                      .Xooooooooooooo.                          ",
"                      .Xooooooooooooo.                          ",
"                      .Xooooooooooooo.                          ",
"                      .Xooooooooooooo.                          ",
"                      .Xooooooooooooo..                         ",
"                      .Xoooooooooooooo..                        ",
"                      .Xooooooooooooooo.                        ",
"                     .Xoooooooooooooooo.                        ",
"                     .Xooooooooooooooooo.                       ",
"                     .Xooooooooooooooooo.                       ",
"                     .Xooooooooooooooooo.                       ",
"                     .Xoooooooooooooooo.                        ",
"                     .ooooooooooooooooX.                        ",
"                     .oooooXooooXooooXX.                        ",
"           ..        .ooooXXoooXXXXXXX.                         ",
"          .XX.       .oooX..oooX......                          ",
"          .oX.       .oooX. .ooX.                               ",
"          .ooX.      .ooX.  .ooX.                               ",
"           .ooX.     .ooX.  .ooX.                               ",
"           .ooo.     .oooX. .ooX.                               ",
"            .ooo.     .ooo. .ooX.                               ",
"             .ooo.     .oo. .ooX.                               ",
"              .ooo..    ....oooX.                               ",
"               .oooX..    .oooX.                                ",
"                .oooXX....oooX.                                 ",
"                 .oooooooooXX.                                  ",
"                  ...ooooo...                                   ",
"                     .....                                      ",
"                                                                ",
"                                                                ",
"                                                                ",
"                                                                ",
"                                                                ",
"                                                                "
};
