/* XPM */
static char *feb72e0d17d744b4e45128c98416a4d5RrLZEPUKhCbEZn6K[] = {
/* columns rows colors chars-per-pixel */
"64 64 8 1 ",
"  c #849537",
". c #482A16",
"X c #6F4224",
"o c #A8733B",
"O c #849537",
"+ c #F4DE35",
"@ c #FFBE5C",
"# c #FEFFB7",
/* pixels */
"                                                                ",
"                                                                ",
"                                                                ",
"                                                                ",
"                                                                ",
"                                                                ",
"                                                                ",
"                                                                ",
"                                                                ",
"                                                                ",
"                                                                ",
"                                                                ",
"                                                                ",
"                                                                ",
"                                                                ",
"                      +      +++                                ",
"                     +........++........                        ",
"                     ++X......+++......XXX                      ",
"                    X++XXXXXXX++++++XXXXXX                      ",
"                    X+++XXXXXXXX++++XXXXXXX                     ",
"                    X+++XXXXXXXX++++XXXXXXX                     ",
"                    X+++XXXXXXXX++++XXXXXX                      ",
"                     XXXXXXXXXXX++++XXXXX                       ",
"                     XXXXXXXXXXX++++XXXXX                       ",
"                     XXXXXXXXXXXX++XXXXXX                       ",
"                     XXXXXXXXXXXXXXXXXXXX                       ",
"                     XXXXXXXXXXXXXXXXXXXX                       ",
"                    XXXXXXXXXXXXXXXXXXXXXX                      ",
"                   XXXXXXXXXXXXXXXXXXXXXXXX                     ",
"                   XXXXXXXXXXXXXXXXXXXXXXXXX                    ",
"                  XXXXXXXXXXXXXXXXXXXXXXXXXX                    ",
"                 XXXXXXXXXXXXXXXXXXXXXXXXXXXX                   ",
"                 XXXXXXX...........XXXXXXXXXXX                  ",
"                XXXXXXX.@@@@@@@@@@@.XXXXXXXXXX                  ",
"                XXXXXX.@@@@@@@@@@@@@.XXXXXXXX..                 ",
"                .XXXXX.@OOO@@@@@@@@@.XXXXXX..##X                ",
"               X#.XXXX.@O@O@@O@@@@@@.XX....####X                ",
"               X#......@OOO@@@@@OO@@...########X                ",
"               X#######@O@@O@O@O@@O@###########X                ",
"               X#######@O@@O@O@O@@O@###########X                ",
"               X#######@@OO@@O@@OO@############X                ",
"               X###.####@@@@@@@@@@########++###X                ",
"               X###.+#####################.++##X                ",
"               X###.+#.###########+++##++#.+.+#X                ",
"               X###.+#.##########....++..#....+X                ",
"               X###....###...+###.++.+.+.####.+X                ",
"               X###.++.###.++.+##.#+.+..#####.+X                ",
"               X###.#+.##.+#+..+#.#+.++...##.+#X                ",
"                X##.#+.##.+#+..+#.#+.+#++++..+.                 ",
"                X##.#####.++..+##.#+.###...++#.oooooo           ",
"                 X########...#########..+++##.Xooooooo          ",
"                 X####################++###..XXoooooooo         ",
"                  ....##############.......XXXooooooooo         ",
"                  XXXX......######..XXXXXXXXXXooooooooo         ",
"                   XXXXXXXXX.......XXXXXXXXXXooooooooo          ",
"                   XXXXXXXXXXXXXXXXXXXXXXXXXXoooooooo           ",
"                    XXXXXXXXXXXXXXXXXXXXXXXXooooooo             ",
"                    oooooooooooooooooooooooooooo                ",
"                                                                ",
"                                                                ",
"                                                                ",
"                                                                ",
"                                                                ",
"                                                                "
};
