/* XPM */
static char *a17a67e2504341f5dbd4820e97c07d7fS7UBRQbuGI9a6WTY[] = {
/* columns rows colors chars-per-pixel */
"64 64 6 1 ",
"  c #1D411E",
". c #367A37",
"X c #5E6B26",
"o c #323E4F",
"O c #61D070",
"+ c #849537",
/* pixels */
"X    XXX    X ooo .... ooo .. .. ooo .  o.oo ..   . ..   o XXX  ",
"XXX  X+XXX++X oo  ..  ooo . ..... oo o.. oo    .    . .. o XX X ",
"X+ X X++XXXX oo O   .O o ..    .  oo o...       ..  ...  o XXXX ",
"X +X X++++XX   o O   O       X .  oo oo.  ..  .  .. .. oo  XXX  ",
"X X+ X++XXX OO.   OOO OO  X XX .. o     ..O. ...  .   o      X X",
"      ++X     O.OO.  o    XXXX       OOOOO  OOO..       X oo XXX",
" o  oo   OOOO.   O.ooo O XXXXXX  OOOOOOOO. OOOOO..   XXX  oo XXX",
"  oo  o o  . O oo     o O XXX   OOOOOOOO. OOOOOOO.. XXXX ooo   X",
"o   .   o O OO    ....    XX  OOOOOOO... OOOOOOOOO.  ++X       X",
" O.. .   O  O   .. ......    OOOO...... o  OOOOOOO.. ++++XXX    ",
" ..      O  O  ... .......  OO........  ooo OOOOOO.. ++++++ o   ",
" . . X  X  X   .... ..     O...  ...  .  ooo OOOOO.. ++++X oo o ",
"  .  XXXX XX  ...... ...  O..    .. OOO. ooo OOOOO.. ++X+XX o o ",
" .. XXXX  XX  ...... ... O.     O.. OOO.      OOOO.. +XX +X o o ",
" .O   XXXXXX  ... .. .. O.  o  O..  OOO.. .   OOOO.. +X   X o o ",
" .O.  XXXXX o .. .... . .  o  OO.    OO.. ... OOOO.. +X        O",
" .O  XXXXX  o ..  ... .      OO.. O. OOO. ooo OOOO.     ..    .O",
" OO.       oo ..  ... ....  OOO. OO.  OO.   o OOO..     ....   .",
" O.      oo o ..  .... .  OO  O OOO. . O.. .  OOO.  . ...       ",
" .  ++XXX o    .  .. .   OO  OO OO.. . O.. .. OO..  . ......... ",
"   ++++X oo  o .  ..    OO. OO. OO.  . O..    O..  ... .....    ",
"o  ++++++X   o  X  .   OO.  OO OO..    O.  o .O.   ...  ..    O ",
"o ++++XX  +X   XXX .  OOO. OOO OO.  .  O. oo ..   .....  ...   .",
"o ++X +X +++XX  XX .  OO. .OO. O.  ..  O.      oo ... ..  ....  ",
"o + +X  +++++XX  X .  OO. OO. OO.  ..  O. ....  o .. .....  ... ",
"o  o   ++++XX    X    O.. OO. OO.  .. O.    ....  .   ......    ",
"o   XX +X++++X        .. OOO OO. o .  O. ..   ...   X .. ...... ",
"o +++X + +X+++    ... .  OO. OO. o . OO. .....   .  X ..        ",
" o ++X   +X     .....   .OO OO.  oo OO.            XXX .  ooooo ",
" o +++XX   o    OOO.... OO. OO.  o  O.  oooooo oo . XXX X  ooo  ",
"  +X++++XX o  OO OO.... OO OO..    ..     oo  X oo O        o   ",
" o  ++X++X   OO. OO.... OO O... .  .  ++XX o X+   X O OO.O.O oo ",
" oo + X  X  OOO.. O.... OOOO... ..    ++++X +++XX XX        O o ",
"o  +  X . o OOOO. OO... OOO...   . o +++X X ++++ o  O O oooo oo ",
"oo  o  ...  OOOO. OO.... OO... oo  o +++XX +++X ooo .        o o",
"ooo  ..... OOOOOO. O.... O...    ooo +X  X +X++X o . o O OOOO  o",
"ooo        OOO.OO. OO... ...  ...   o X +   X++X    o .      o  ",
"oooo ++XX  OOO..OO. OO..     .......   ++XX X     XX   o Ooo   o",
"    . +++X OO...OO. OO...  .....OOO..  +++X   XXXXXXXX oo   O.O ",
" XX . +++X OO... OO. OO.. ....O    OO.  +++X XXX+++++  oo O    o",
" XXX ++++X OO... OO. OOO....O  XX o  OO X++X  X++++XX  oo O O X ",
" XX +++++X OO... OOO. OOOOOO  XXXX  X   +X    X++++++X oo O  O  ",
" XXX   +XX  O... OOO.. OOOOO        XX o X  XXXX++XX      . XOO ",
" XXX . XX   O.. OO...O.. OOO OOO...   oo   o  +X++XX .. . . X   ",
" XX .. X .. O.. OOO..OO.. OOOOOOO.....  o   o +X ++X  ...    XX ",
" XX .    .. OO. OO....OOO.  OOOOOOO.O..   ..  X     X .. ... XX ",
"  XX ...   . O. OOO.  OOOOO.  OOOOOO..... . . X o .   .. ... XX ",
"o   ..    .. O. OO..   OOOOOO.   OOOOOO..  .O.  o ...... ... X  ",
"ooo     ...  OO  O.. o OOOOOOO...  OOOOOO.   O. o    .. o ..  oo",
"o    ..       OO O..   OOO.OOOOO...     OO.   O      ..  o . ooo",
" ooo .. .OO O  O O.. .  OO.. OOOOO....OOOOO.  OOOO.. ..  o . ooo",
" ooo ..    .O     O. .  OO.    OOOOOOOOOOO   . O   O.  . o . ooo",
" oo       OO      O. .. OO.  .  OOOOOOO     O. O oo  . . o . ooo",
"  o      O  O ..  OO .. O.O  . X   OOO      .   .    . .      oo",
"o    O.O.   . ...   O .  O.  . XXX     ..  O.  OO O. . .. XXXX o",
" +      O   . ..      ..  .  .. XXXXX .    O  O  .     .. X++XX ",
"X+X  . . O    ..      .    . .. XXX  .  .     .  O. . X . X+++X ",
"X++  . O  O . ..    ... ..    . XXXX  ... . .         XX  X+XX  ",
"X++  . O  . . ..  .....  ..     XX  ....  .. ... .. . XXXXX++X  ",
"XX+X ..    .. ..     . . ..     X o ...   .. .. o .   X+X+++XX  ",
"XX+X . .. ....   oo .  .  .  ..  ooo .. . ...  . o    XX++XX+X o",
" XX X  .. ..    oo .. . o   ....  ooo  .. ..  ....  .o X+XXX+X o",
"X   oX .   . oo oo . .  o  . . ..       . .   ........ XXX XXX o",
"XXX         ooo       o   .  ..  ..        o ..   .. .o   o    o"
};
