/* XPM */
static char *_0a15cc85621461aef9b8e990bafca942QMaowNyfKYePjNB[] = {
/* columns rows colors chars-per-pixel */
"64 64 11 1 ",
"  c #5B99F1",
". c #272736",
"X c #33263F",
"o c #363649",
"O c #323E4F",
"+ c #4C3F58",
"@ c #67527B",
"# c #EEF607",
"$ c #8D73A7",
"% c #A58EBC",
"& c #BEAFCC",
/* pixels */
"          OOOOOO         OOOOOOOOO                              ",
"         O&&&&&&O       OO&&&&&&&OO                             ",
"        O&&&&&&&&OO    O&&&&&&&&&&&O   OOOO                     ",
"        O&&&&&&&&&&O  OO&&&&&&&&&&&OOOO%%%OOOO                  ",
"       O&&&&&&&&&&&&O O&&&&&&&&&&&&&O%%%%%%%%OO       OOOOO     ",
"       O&&&&&&&&&&&&O O&&&&&&&&&&&&OO%%%%%%%%%%O    OOO%%%OOO   ",
"   OOOOO&&&&&&&&&&&&OO&&&&&&&&&&&&OO%%%%%%%%%%%%O  OO%%%%%%%%OO ",
"  OO&&&&&&&&&&&&&&&&&&&&&&&&&&&&&O%%%%%%%%%%%%%%OO O%%%%%%%%%%OO",
" OO&&&&&&&&&&&&&&&&&&&&&&&&&&&&&&O%%%%%%%%%%%%%%%OO%%%%%%%%%%%%O",
"OO&&&&&&&&&&&&&&&&&&&&&&&&&&&&&&OO%%%%%%%%%%%%%%%O%%%%%%%%%%%%%%",
"O&&&&&&&&&&&&&&&&&&&&&&&&&&&&&&&O%%%%%%%%%%%%%%%%%%%%%%%%%%%%%%%",
"O&&&&&&OOOOOOOO&&&&&&&&&&&&&&&&&O%%%%%%%%%%%%%%%%%%%%%%%%%%%%%%%",
"O&&&&&OO$$$$$$OO&&&&&&&&&OOOOOOOOO%%%%%%%%%%%%%%%%%%%%%%%%%%%%%%",
"&&&&&OO$$$$$$$$$O&&&&&&&O$$$$$$$$OO%%%%%%%%%%%%%%%%%%%%%%%%%%%%%",
"&&&&&O$$$$$$$$$$$O&&&&&O$$$$$$$$$$OO%%%%%%%%%%%%%%%%%%%%%%%%%%%%",
"&&&&OO$$$$$$$$$$$$O&&&O$$$$$$$$$$$$OO%%%%%%%%%%%%%%%%%%%%%%%%%%%",
"&&&&O$$$$$$$$$$$$$$O&O$$$$$$$$$$$$$$O%%%%%%%%%%%%%%%%%%%%%%%%%%%",
"&&&&O$$$$$$$$$$$$$$$O$$$$$$$$$$$$$$$$O%%%%%%%%%%%%%%%%%%%%%%%%%%",
"&&&&O$$$$$$$$$$$$$$$$$$$$$$$$$$$$$$$$O%%%%%%%%%%%%%%%%%%%%%%%%%%",
"&&&&O$$$$$$$$$$$$$$$$$$$$$$$$$$$$$$$$O%%%%%%%%%%%%%%%%%%%%%%%%%%",
"&&OOO$$$$$$$$$$$$$$$$$$$$$$$$$$$$$$$$O%%%%%%%%%%%%%%%%%%%%%%%%%%",
"OO$$$$$$$$$$$$$$$$$$$$$$$$$$$$$$$$$$$O%%%oooo%%%%%%%%%%%%%%%%%%%",
"O$$$$$$$$$$$$$$$$$$$$$$$$$$$$$$$$$$$$$oooo@@oo%%%%%%%%%%oooooo%%",
"O$$$$$$$$$$$$$$$$$$$$$$$$$$$$$$$$$$$$oo@@@@@@@oo%%%%%%oo@@@@@oo%",
"O$$$$$$$$$$$$$$$$$$$$$$$$$$$$$$$$$$$oo@@@@@@@@@oo%%%oo@@@@@@@@oo",
"$$$$$$$$$$$$$$$$$$$$$$$$$$$$$$$$$$$oo@@@@@@@@@@@o%%oo@@@@@@@@@@o",
"$$.....$$$$$$$$$$$$$$$$$$$$$$$$$$$oo@@@@@@@@@@@@@o%o@@@@@@@@@@@@",
"...+++...$$$$$$$$$$$$$$$$$$$$$$$$$o@@@@@@@@@@@@@@oo@@@@@@@@@@@@@",
"++++++++...$$$$$$$$$$$$$$$$$$$$$$$o@@@@@@@@@@@@@@@@@@@@@@@@@@@@@",
"++++++++++..$$$$$$$$$$$$$$$$$$$$$$o@@@@@@@@@@@@@@@@@@@@@@@@@@@@@",
"+++++++++++..$$$$$$$$$$$$$$$$$$$$oo@@@@@@@@@@@@@@@@@@@@@@@@@@@@@",
"++++++++++++..$$$......$$$$$.......@@@@@@@@@@@@@@@@@@@@@@@@@@@@@",
"+++++++++++++....XXXXX...$...XXXXXX..@@@@@@@@@@@@@@@@@@@@@@@@@@@",
"++++++++++++++.XXXXXXXXX...XXXXXXXXX..@@@@@@@@@@@@@@@@@@@@@@@@@@",
"+++++++++++++.XXXXXXXXXXX.XXXXXXXXXXX..@@@@@@@@@@@@@@@@@@@@@@@@@",
"++++++++++++.XXXXXXXXXXXXXXXXXXXXXXXXX.@@@@@@@@@@@@@@@@@@@@@@@@@",
"+++++++++++.XXXXXXXXXXXXXXXXXXXXXXXXXX..@@@@@@@@@@@@@@@@@@@@@@@@",
"+++++++++++.XXXXXXXXXXXXXXXXXXXXXXXXXXX.@@@@@@@@@@@@@@@@@@@@@@@@",
"+++++++++++.XXXXXXXXXXXXXXXXXXXXXXXXXXX.@@@@@@@@@@@@@@@@@@@@@@@@",
"+++++++++++.XXXXXXXXXXXXXXXXXXXXXXXXXXX.@@@@@@@@@@@@@@@@@@@@@@@@",
"+++++++++++.XXXXXXXXXXXXXXXXXXXXXXXXXX.@@@@@@@@@@@@@@@@@@@@@@@@@",
"+++++++++++.XXXXXXXXXXXXXXXXXXXXXXXXX.@@@@@@@@@@@@@@@@@@@@@@@@@@",
"++++++++++++.XXXXXXXXXXXXXXXXXXXXXXXX.......@@@@@@@@@@@@@@@@@@@@",
"++++++++.....XXXXXXXXXXXXXXXXXXXXXXXXXXXXXX..@@@@@@@@@@@@@@@@@@@",
"++++++..XXXXXXXXXXXXXXXXXXXXXXXXXXXXXXXXXXXXX.@@@@@@@@@@@@@@@@@@",
"++++..XXXXXXXXXXXXXXXXXXXXXXXXXXXXXXXXXXXXXXXX.@@@@@@@@@@@@@@@@@",
"++..XXXXXXXXXXXXXXXXXXXXXXXXXXXXXXXXXXXXXXXXXX..@@@@@@@@@@@@@@@@",
"++.XXXXXXXXXXXXXXXXXXXXXXXXXXXXXXXXXXXXXXXXXXXX.oooooooooooooooo",
"...XXXXXXXXXXXXXXXXXXXXXXXXXXXXXXXXXXXXXXXXXXXX.                ",
"  .XXXXXXXXXXXXXXXXXXXXXXXXXXXXXXXXXXXXXXXXXXX..   O            ",
"  .XXXXXXXXXXXXXXXXXXXXXXXXXXXXXXXXXXXXXXXXXXX.   O        O    ",
"  .XXXXXXXXXXXXXXXXXXXXXXXXXXXXXXXXXXXXXXXXXXX.           O     ",
"   .XXXXXXXXXXXXXXXXXXXXXXXXXXXXXXXXXXXXXXXXX..        O        ",
"   .XXXXXXXXXXXXXXXXXXXXXXXXXXXXXXXXXXXXXXXX..        O         ",
"    ..XXXXXXXXXXXXXXXXXXXXXXXXXXXXXXXXXXXX..                 O  ",
"     ......................................                 O   ",
" O              ####             ####         O                 ",
"O            O   ##               ##         O     O     O      ",
"            O   ##         O     ##               O     O       ",
"               ##         O     ##                              ",
"      O       ##               ##                             O ",
"     O         #####            #####O                       O  ",
"                 ##O              ##O        O      O           ",
"                 #O               #         O      O            "
};
