/* XPM */
static char *_904e3c851814369c57c2e5b84ccb9b7B8htDhJx5PL9Ulpe[] = {
/* columns rows colors chars-per-pixel */
"64 64 168 2 ",
"   c #546D8E",
".  c #516DAB",
"X  c #5D7FAA",
"o  c #516CB2",
"O  c #5471B1",
"+  c #5A7AB1",
"@  c #3A7FF2",
"#  c #4D6CE6",
"$  c #5477E5",
"%  c #5173EE",
"&  c #547AEF",
"*  c #4D6DF3",
"=  c #4276F2",
"-  c #4F72F2",
";  c #467BF3",
":  c #497FF1",
">  c #5274F2",
",  c #557AF1",
"<  c #3C82A8",
"1  c #3686B0",
"2  c #3B87B1",
"3  c #5E8CAC",
"4  c #448AB0",
"5  c #498BB1",
"6  c #668CAA",
"7  c #698FAF",
"8  c #6591AF",
"9  c #6C93AF",
"0  c #6182B0",
"q  c #2AB3DF",
"w  c #169EEE",
"e  c #1B9DEF",
"r  c #1B9CF0",
"t  c #358EED",
"y  c #259CED",
"u  c #2C8DF2",
"i  c #3287F1",
"p  c #3B81F2",
"a  c #3489F0",
"s  c #3295F0",
"d  c #0CADE2",
"f  c #0AAEEF",
"g  c #14A6EF",
"h  c #19A2EF",
"j  c #17ABEB",
"k  c #18ABEA",
"l  c #01B6EF",
"z  c #0DB3EC",
"x  c #04B9EE",
"c  c #0EBAEE",
"v  c #1CB0E0",
"b  c #12B3EA",
"n  c #1DB6EA",
"m  c #13BAED",
"M  c #1FBAEC",
"N  c #08AEF1",
"B  c #15A5F1",
"V  c #18A0F0",
"C  c #1DADF0",
"Z  c #05B3F0",
"A  c #09B0F0",
"S  c #0BBBF1",
"D  c #11BBF0",
"F  c #24AAEF",
"G  c #3AA4EF",
"H  c #20B5EF",
"J  c #2BB3EF",
"K  c #23BEED",
"L  c #2CB9E9",
"P  c #3AB8E3",
"I  c #33BCEB",
"U  c #3CBBEA",
"Y  c #4C98D1",
"T  c #4E9EDB",
"R  c #5B92DD",
"E  c #519BDB",
"W  c #6D95C7",
"Q  c #6D94C8",
"!  c #638ADC",
"~  c #6F99D1",
"^  c #6B95DC",
"/  c #6698D8",
"(  c #709AD1",
")  c #739FDB",
"_  c #47A3DB",
"`  c #4AA3DB",
"'  c #52A1D9",
"]  c #5BA8DB",
"[  c #6CACDA",
"{  c #73A0D5",
"}  c #79A6D0",
"|  c #77A6DB",
" . c #73ACDA",
".. c #7DAEDA",
"X. c #7EB0DA",
"o. c #4182EF",
"O. c #4E85EC",
"+. c #4A83F1",
"@. c #408AF0",
"#. c #5E86F0",
"$. c #538EF1",
"%. c #4B94F0",
"&. c #5892F0",
"*. c #5B99F1",
"=. c #648CE3",
"-. c #608BEC",
";. c #6B98E9",
":. c #648CF1",
">. c #6793F0",
",. c #6892F1",
"<. c #6F9BF1",
"1. c #5CADEE",
"2. c #76A7E1",
"3. c #79AAEF",
"4. c #60B5EE",
"5. c #6EB4EE",
"6. c #66BEEC",
"7. c #7EB3EE",
"8. c #77BDED",
"9. c #73A3F0",
"0. c #78AAF1",
"q. c #23C0EC",
"w. c #2CC0ED",
"e. c #36C2ED",
"r. c #4DC8ED",
"t. c #5CC4EA",
"y. c #56CBEC",
"u. c #58CAEC",
"i. c #65C7E8",
"p. c #6DC6ED",
"a. c #65CEEB",
"s. c #72CAE9",
"d. c #7DC9ED",
"f. c #73D1EA",
"g. c #74D1EA",
"h. c #74D1EB",
"j. c #87BFD4",
"k. c #87BFDF",
"l. c #81B3E1",
"z. c #81B3E2",
"x. c #87BEE0",
"c. c #80B4EF",
"v. c #87BDED",
"b. c #86BEED",
"n. c #8BC3DA",
"m. c #8FCADF",
"M. c #8FCBDF",
"N. c #90CBDE",
"B. c #90CBDF",
"V. c #81CDE7",
"C. c #8AC5E9",
"Z. c #82CDE8",
"A. c #8ECAEC",
"S. c #8FCBEC",
"D. c #85D4EB",
"F. c #85D5EB",
"G. c #84D5EC",
"H. c #92D0E7",
"J. c #92D1E7",
"K. c #93D1E8",
"L. c #98D8EA",
"P. c #99D8EA",
"I. c #98D9EA",
"U. c #99D9EA",
"Y. c #98D8EB",
"T. c #99D8EB",
"R. c #98D9EB",
"E. c #99D9EB",
/* pixels */
"P.P.P.P.x.9.c.b.> :.:.* - - :.> * * * * , :.C.S.P.P.R.P.P.R.R.P.P.P.P.h.g.R.R.P.P.X.P.P.P.P.P.0.c.>.* >.T.* * * * * * * * * #.c.",
"P.b.z.9.c.S.- , ,.> - , ,.* * * * * * % % & ^ P.L.K.T.T.L.P.R.L.R.f.f.P.P.f.G.P.X.P.P.~ T...3.C.> , P.* * * * * * * * * > #.S.T.",
"b.z.2.C.+ - ,.=.* * * * * * * * * * * * ! * >.P.R.L.L.T.L.L.L.L.f.y.f.c m R.g.a.G.P.( ( ~ 3. .- >.P.* * * * * * * * * > v.S.>., ",
"0.> O * > b.* * * * * * * * * * * * * ! * P.~ P.n.L.K.C.P.L.L.L.P.m c a.G.D e.P.f.( ( ( ~ ( ! P.T.* * * * * * * * > :.v.C., , T.",
", O > P.  * o * # * * * * * * * * * * - C.( ( ( H.} P.L.L.P.L.L.m m P.l l c m q.L F.~ ( ( ; T.* * * * * * * * > -.S.C.>., >.T.T.",
", * *       * o * * * * * * * * * * - #.~ ( ( ( W } P.9 P.R.m.L.P.P.l l l l l _ K q.m ~ G.s.p = * * * * * - -.S.S.! $ >.9 T.T.N.",
"* *           o * * * * * - * :.b.S.> , - ~ ~ ( L.9 L.P.P.P.P.Y.P.l l l l l l l l _ E [ I r * = p * * - -.v.S., - >.9 P.P.R.L.L.",
"* # *       * * * * - * :.v.b.> - - ^ R.R.T.( P.7 L.L.  R.9 P.H.g.g.l l l l l l l Z z z z ` T w * ; : b.b.,., ,.L.9 P.P.  R.9 P.",
"o * * *   * $ #.v.S.& ; , - - >.R.P.R.P.X.X.X.P.P.R.      L.9 m m P.g.l l l l l l z z l _ l z y V $.7.F.& & T.T.R.R.R.      P.9 ",
">.* o . . > C.S.,.O.,.T.T.T.T.T.R.P.P.R.P.P.H.R.X.          9 R.P.l l l c l l l l l ` l l l l l z P d.*.^ T.T.H.P.K.          9 ",
"* * * - =.b.9 O +.D.T.e.T.P.F.T.R.P.P.R.R.R.P.R.M.P.      P.R.P.T.T.P.x l l l l l ` l l ( l _ l z F ` >.F.P.T.H.P.m.L.      P.T.",
"R.6.6.> * * , >.T.1.T.T.H.P.T.T.R.T.R.K.P.R.P.9 P.P.R.  R.M.R.P.P.P.P.P.I.m l l l l l ( ( ( l ` l ` e.e.( P...S.9 ..P.P.  L.H.R.",
"h.T.h.T.I.P.P.X.e.I.I.l T.e.T.F.P.H.P.R.R.R.R.R.P.9 9 6 R.L.P.P.R.P.R.P.R.P.P.w.l l ( ( ( ( ( ` l l l ( ( ( P.( L.L.9 9 6 L.L.L.",
"y.m m G.g.f.X.I.P.( l _ l H.e.T.H.K.I.X.L.L.K.P.P.P.P.M.R.9 9 R.R.R.R.P.R.P.P.P.L.F.c ( ( ( l l l l ( ( ( ( ( j.P.( L...C.H.9 9 ",
"c G.m T.F.g.P.P.( ( ~ l _ Z e.P.P.X.P.P.P.P.L.P.L.L.P.R.R.R.R.R.P.P.R.P.R.R.R.P.X.P.P.P.( m b l l L.F.( ( ( P.P.( ( ( L.X.L.L.L.",
"D l l z m a.a.( ( ( ~ ~ _ R.P.P.X.R.L.~ P.X.* % * * - R.* P.P.* P.* * * R.P.* * * L.X.X...P.w.L ` m e.P.( L.J.( ( ( ( ( X.L.L.L.",
"l l l l l m t.w.( ( ( l P.F.P.T.T.T.( ( ( R.X.R.* P.L.L.* P.R.* R.T.* T.L.* P.P.R.P.P.R.H.R.X.X.F.P.] ] X.R.K.P.~ ( ~ P.P.R.R.P.",
"l l l l l ` P.f.G.( e.I P.P.T.P.R.( ( ( ~ ( X.P.* P.P.L.* * * * T.T.* T.R.P.* * P.R.R.P.R.P.P.P.P.P.R.L.K.X.X.X.P.Q L.K.P.R.R.R.",
"l l l l l m l X. .[ P.G.P.e.e.P.K.P.( ( ( P.R.P.* L.L.L.* L.P.* P.P.* T.R.P.R.P.* R.P.R.P.P.L.P.R.R.R.T.L.P.P.} X...P.L.L.L.T.R.",
"T.l l l l l e.z P.i.G.X...P.P.X.P.R.R.( R.H.R.P.- P.R.L.* P.R.* P.* * * T.* * * P.P.R.P.R.P.P.P.P.H.L.T.P.P.M.M.P.9 L...} P.T.L.",
"l l l l l l l w.l P.a.g.T.K.T.Y.T.......P.R.T.P.R.R.R.L.R.P.P.R.R.T.T.M.P.P.L.P.P.P.P.R.P.P.P.K.T.P.R.P.R.P.R.9 P.R.R.R.L.R.R.P.",
"m c S d l l l l w.l T.Z.a.G.R.R.T.Y.Y.K.I.X.X.R.P.R.P.R.P.P.P.P.R.M.R.R.P.L.L.P.R.R.T.T.P.P.K.K.T.X.P.P.K.P.9 R.P.  R.9 P.M.R.P.",
"e.P q.w.l l l l l m b U G. .a.R.H.T.C.S.R.R.P.R.R.P.R.P.P.P.P.R.B.C.T.9 L.L.H.P.T.T.L.f.P.P.L.X.T.P.P.P.L.P.P.R.      T.9 R.P.R.",
"m.P e.4 w.l d l l l w._ w.w.R.h.1.C.P.R.R.P.R.P.P.P.R.P.P.R.P.P.I.9 R.P.L.L.L.T.T.f.L.f.s.L.k.P.P.~ P.X.P.H.L.          9 R.R.R.",
"P.9 m e.w.w.l l l l _ l Z ( c { 7.6., >.L.b.S.T.P.P.T.P.L.R.L.P.9 I.P.  P.9 R.H.h.y.h.m G.I.g.T.( ( ( T...P.m.T.      P.P.P.P.P.",
"9 T.P.  D 2 c d l l l l ( ( ( m T +.G.8.S.P.L.P.P.R.R.P.R.L.T.L.P.P.      I.9 L.h.S a.D m h.f.( ( ( ( ( X.9 T.T.R.  P.m.P.R.P.R.",
"P.P.      e.4 w.l l l ( ( ( ( ~ _ I @ * +.>.b.S.P.R.T.P.R.T.R.R.P.          9 L.m D D l e.m F.a.( ( ~ T.T.R.T.9 9 6 L.L.R.R.P.R.",
"T.          5 w.M l z l ( ( ( z Z N r @ = , ,.L.R.* * * T.L.* * # P.      L.P.L.m m l l x ` Z u.r.( L.K.R.P.T.Y.P.n.b.9 9 R.P.P.",
"m.T.      T.J Z S ` Z Z l ~ l b l l e f * = >.L.P.P.* R.R.* T.9 I.L.L.  L.M.P.P.R.l l l l l l `  .[ F.T.T.T.T.C.c.P.P.R.P.L.T.R.",
"R.T.T.  7.| c.S.f l z _ ` ' l _ l l z r e T.L.Y.T.R.* R.R.R.* * I.9 9 6 L.M.R.P.h.x l l l l l l e.s.s.[  .5.5.5.b.>., P.S.C.T.T.",
"R.9 6 X b.S.> - ,.S.j f l ` l ` _ l l l I S.T.T.R.P.* R.R.R.R.L.- L.L.n.R.9 9 m h.h.x l l x l w.l w.w.5.4.6.S., ; G.d.p.T.P.T.L.",
"T.<.9.k.* o + b.% * * e ` N x ( l _ l -.T.T.T.T.R.* * * L.* * * L.L.M.M.L.9 R.m v D m l l z l l l Z n z q.V B C 6.i = >., S.b.P.",
"3.0., * >.P.* o.% * ! * * j ( ( ( l | d., % >.P.T.T.P.P.P.R.R.P.L.I.I.9 P.P.P.P.e.m l z l l l l l l l l z k t.p B B r z &.+.g.T.",
"b.* > L.* @ * @ ! * * * * ( ( ( ( ( Y h >.I.P.P.R.R.P.P.R.P.R.P.I.I.9 I.I.  P.9 T.v U I K ` l l z l l Z l l Z x Z Z = = * , R.T.",
"* , L.* p u * ` @ * ( * ! #.( ( Q +.>.e.e.R.P.P.P.P.R.P.I.R.R.R.I.I.L.P.      P.9 T.e.` z Z l l l l l l Z l l l Z l l l w.c G.s.",
"P.* * * p f p f @ W ( ( b...& W =.H.9 R.P.M.P.I.R.P.P.P.P.I.P.R.I.I.L.          7 S.| b m ( g ` l z l l l l l l z l l l l e.m R.",
"* * * * f f u l ( ~ ~ ~ ( ( ^ ..9 H.T.T.P.R.R.I.P.R.R.R.R.R.P.P.P.P.m.P.      P.9.c.S.& ( ( ( l _ l l l l l z l l l l l l l m P.",
"* * * * z p z z l ~ ( ( *.L.L.7 P.n.  T.9 R.M.P.P.R.* * R.R.R.P.P.9 T.T.I.  C.;.b.,.- ~ ( ( ( ( _ l l l l z b l _ l l b l , R.P.",
"* * * * % l _ l l l ( T.t.a.f.D.T.      P.9 P.P.T.* P.R.* I.P.P.P.P.H.9 7 X c.S.* & K.* ( ( ( * * N Z l l l _ x l l l l G.h.R.R.",
"* * * , 1.l ` l ` ` E l y.f.F.L.          9 P.P.P.* * * - I.I.P.K.L.T.T.b.k., o 9 z.* * * ( * % * * * p $.` l l ( l ` c K.R.P.P.",
"* * > z  ., l l l l b x ` ] M L F.      P.I.I.I.R.* P.R.* R.I.K.K.T.X.R.P.% >.P.* * * ! ! ! * * * , #.S.S.>., ( ( ( w.` m c m L.",
", > b.` * A ( l _ l z l l b 3 f.] e.  d.n.I.R.R.P.# R.R.* R.I.P...T.P.T., T.P.* * * * * * % * ! ^ p.S.>., >.~ ~ ( ~ ( X.R.R.L.P.",
"P.b.T., A ( ( ( l _ l l l l _ l < 4 3 G.R.R.R.B.P.L.P.P.P.R.P.X.P.T.( P...L.- * * * * * * > #.p.S.a - >.P.H.P.~ ( ~ R.R.P.P.L.R.",
"T.T.T.P.( ( ( ( ( _ l l l _ l l ~ Z Y e.6 8 M.M.L.9 P.L.M.P.R.P.P.( ( ( L.! * * * * * , #.S.p.G , S L.L. .P.P.K.( P.J.P.R.P.R.R.",
"L.L.L.H.P.( ( ( l w.l l l b l ( ( ( l ] e.R.R.9 P.P.P.P.L.L.R.L.~ ( ( ~ ( ^ * * * * - C.S.>.a Z T.m R.T.f.K.X.X...L.L.J.P.R.P.R.",
"L.H.n.L.P.P.( e.n c l b l l ( ( ( ( ( _ e.R.9 R.P.  P.9 L.H.P.H.T.( ~ ~ P.R., * * #.b.P., , c D T.l F.m s.s.L.X.H.L...n.R.R.R.P.",
"P.P.P.C.X...X.R.m n b M l ' l ( ( ( l I.R.R.R.R.      P.9 L.X.P.P.P.( R.K., , - b.S., - >.T.D D l l l m m  .P.P.L.L.R.R.R.R.R.R.",
"L.C.T.P.P.P.H.K.X.X.m ` _ l x w.( l d.F.P.R.R.          9 P.R.P.X.X.X.R.P.P.R.C.T., , P.L.R.m l l l l l _ a.L.( P...R.J.P.R.R.R.",
"M.M.P.9 P.T.n.K.T...X.P.s.( _ / ' b e.L.L.L.M.P.      I.L.R.L.L.R.R.K.P.X.X.R.P.P.P.R.P.L.P.w.l l l l l l f.( ( ( P.X.R.R.T.T.L.",
"R.9 P.P.T.P.T...T.T.R.P.( ( ( R.| G.] ` e.9 P.R.P.  P.B.P.R.R.L.P.R.P.P.I.R.P.R.P.P.R.R.L.m f.Z l z l l x ( ( ( ( ( X.P.T.P.R.P.",
"9 P.P.  P.9 k.H.P.( P.( ( ( ( ( ..S.R.Y.L.P.L.9 9 6 P.P.T.L.L.L.P.P.R.P.R.P.P.P.P.R.R.R.R.b h.z l l l l n e.( ( ( T.P.I.T.T.S.C.",
"I.P.      H.6 T.( ( ( <.( ( ( R.b.b.R.R.L.L.R.P.P.M.R.9 9 L.L.T.R.R.R.P.P.R.P.L.P.R.R.R.R.m Z.n l _ l ` b l F.( R.J.P.S.b.7.R.R.",
"P.          9 ( Q ( ( ( R ( * b.>.P.S.Y.P.T.P.* P.R.L.* L.L.* * R.R.- R.P.P.P.* I.P.I.I.L.e.P.` l l l l l ` ` | S.c.v.b.7.b.,., ",
"B.I.      P.K.b.( ( ( R X.R = * > :.C.R.R.P.P.* I.I.P.* R.* T.P.- R.* P.P.R.K.* P.P.P.I.L.T.] w.c ( l _ l b x 5.C.| | :., > S.S.",
"P.P.R.  T.} <.>.> ( s t f k * R R , P.T.L.R.T.* I.# P.* P.* * - * R.* P.K.P.P.* P.P.I.P.T.T.e.T.( ( ( l _ l z 5.:.- , > , S.* * ",
"P.9 9 6 C.0.<.=.! ^ N f @ f B * p p f.F.R.R.P.# - I.- * R.* L.R.* P.* K.H.P.X.* P.P.P.P.T.T.T.~ ( ( ( ( _ l z a , :.:.* * * * * ",
"P.P.P.z.0.0 o * , k f ` ` l z Z K a.f.D.G.F.N.# L.9 R.* M.* R.P.* R.* * ! * L.* * * * P.R.P.H.J ( ( ( l l l l %.* * * * * * * * ",
"R.P.P.P., * * P.* * f l Z l l l l q.c e.F.f.y.9 R.R.P.R.P.P.R.R.P.R.P...R.L.( T.X.P.H.P.P.X.b.J +.( l z l l l * i * * * * * * * ",
"P.P.T., , , * * * * Z l l l l l l l w.a.q.e.9 F.F.  P.9 R.M.P.P.R.R.P.R.T.( ( ( R.X.R.P.P.P.P.T R T l l l l l e i * - * * * * * ",
"P.P.T.T.T.- * * * @ @ l l l l l l l l l c w.x F.      P.9 P.R.P.T.P.P.R.( ( ( ( ~ X.P.P.R.R., z D.y l ` ` l l l * @ * * * * - > ",
"R.P.T.T.* * * * f f @ = l l l l l l l l l l m           9 R.P.R.L.P.P.K.L.( ( ( L.P.R.P.P.P.L.e.- N l l l l l r Z * * p > :.S.v.",
"P.R.R.C., * * * * f l l l l l l l l l l l l d e.      R.R.R.P.R.P.P.X.P.L.L.( L.K.R.R.P.P.P.P.- e w r l l l l l N - :.S.S.:., , ",
"P.R., , , P.* * * > 0.l l l x l l l l l l 1 l l e.  R.M.R.R.P.P.R.P.R.R.X.....L.P.P.P.R.R.R.> #.e * B w l l l :.Z b.S ; p ,.T.T.",
"R.R.R.R., * * * > b., * , x l l l l l l l l l 1 1 < P.R.P.P.L.R.R.P.P.L.P.P.K.P.X.X.P.P.R., , Y., f r e h l I l l l >.D T.T.T.T."
};
