/* XPM */
static char *b08bb4a3bddc4469a17145dd424f76ccygEf87RDmDcRJI7c[] = {
/* columns rows colors chars-per-pixel */
"64 64 3 1 ",
"  c #849537",
". c #1D411E",
"X c #3CA370",
/* pixels */
"                                                                ",
"                                                                ",
"                                                                ",
"                                                                ",
"                                                                ",
"                                                                ",
"                                                                ",
"                                                                ",
"                                                                ",
"                                                                ",
"                                                                ",
"                                                                ",
"                                                                ",
"                                                                ",
"                                                                ",
"                                                                ",
"                                                                ",
"                                                                ",
"                                                                ",
"                                                                ",
"                                                                ",
"                                                                ",
"                                                                ",
"                                                                ",
"                                                                ",
"                                                                ",
"                                                                ",
"             ... .......                                        ",
"           ..XX...X.XXXX..                                      ",
"          ....XXXX.XX..XX...                                    ",
"  ........XXX.XXX.XXX.X.XXX.                                    ",
"  .XXXX.XX..X......XXX.XXX..                                    ",
"  .XXX.XX.XX.X.......XXXX..                                     ",
" .....XXXX..XX.X......XXX....                                   ",
" .XXX.....XXXX.XXX.....X...X.                                   ",
".XXXXXXXX...XX.XXX........XXX.                                  ",
"......XX..X..X.XX.....X..X.XX.                                  ",
"     ..X.X.X...X.....X.X..XXX.                                  ",
"       .X.X.X......XXXX.XXXX.                                   ",
"     ..XX..XX.XX..XXXXXXX...                                    ",
"    .XX.XXXX.XXXXX.........                                     ",
"     .XX.XX..XXXX.XX.XX.X..                                     ",
"      .XXX.. ...XXXXX..XX..                                     ",
"       ..X.     ...XXXXX..                                      ",
"        ..         ...XX.                                       ",
"                     ...                                        ",
"                                                                ",
"                                                                ",
"                                                                ",
"                                                                ",
"                                                                ",
"                                                                ",
"                                                                ",
"                                                                ",
"                                                                ",
"                                                                ",
"                                                                ",
"                                                                ",
"                                                                ",
"                                                                ",
"                                                                ",
"                                                                ",
"                                                                ",
"                                                                "
};
