/* XPM */
static char *_e85508a9cb5485b842f504c5625a4f9SG0y3tMUVTMNEiyp[] = {
/* columns rows colors chars-per-pixel */
"64 64 3 1 ",
"  c #849537",
". c #1D411E",
"X c #3CA370",
/* pixels */
"                           ..                                   ",
"                           .X..                                 ",
"                           .XX....                              ",
"                           .XX.XX.                              ",
"                       .   .XX.XX.                              ",
"                      .X. ..X..XX.                              ",
"                     .XX. .XX.X.X.                              ",
"                    .XX.X.XXX.XX..                              ",
"                   ..X.XXX..X.XXX.                              ",
"                   .XXXX..X...X.X.                              ",
"                    ..XX.X.X.X.X.X.                             ",
"                     ..XX.X..X.X.X..                            ",
"                      ..XX..XXX.XX..                            ",
"                     .XX...XXXXX...X.                           ",
"                     .XXX........XXX.                           ",
"                     .XXX.XXXXX..XX..                           ",
"                    .XXX...XXX...XX.                            ",
"                    .X.X....XX....X..                           ",
"                    .XX.X........X.X.                           ",
"                   .XXX.XX......XXX..                           ",
"                   .XX..XX......XXXX.                           ",
"                  ..X.X.XXX....XX..X...                         ",
"                  .XX.X.XX.X..XX.X.X.X.                         ",
"                  .XXX..X.X..XXXX.XX.X..                        ",
"                   ..XX.XX....XXXXX.X.XX.                       ",
"                    .....X.X....XX...X....                      ",
"                     ....XX.X....X...X.X.X..                    ",
"                       ..XXXXX.X........XXX.                    ",
"                       .X.XXX..XXX.....XXX..                    ",
"                       .X....X.X.......XXX.                     ",
"                       .X..XXX.XXX......XX.                     ",
"                      .XXX.XX.XX..X.....X..                     ",
"                      .XXX.XX.XX.X......X..                     ",
"                      .X..XXX.XXX.X......XX......               ",
"                     ..XX.XX.XXXXXX...X.XX.XX.XX.               ",
"                     .X....X.....XX...XXX.X.X.XX.               ",
"                    .X.XX...XX..X...XX..XX.XX.XX.               ",
"                   .XXX...X.XX.X.X.XXXXX.....XXX.               ",
"                  ...XX..XXX.X..XX.XXXXX.........               ",
"                    .....XXX..XXXX.X...X....X...                ",
"                     ....XX.X...XXX.XXXX....XXXX.               ",
"                     .XX.X.XX.......X.XX....XXX...              ",
"                     .XX.XX..X.......X.X.....X.XXX.             ",
"                     .XX.XX.X.......X.XX......XX.X.             ",
"                    .XXX.XXX.X......XXXX..XXX.X.X...            ",
"                  ...XXX.XXXXX......XXX..XXXXX.X.XX.            ",
"                 .XXX.XX.X.....XX...XXX.X...XX.XX.X.            ",
"              ...XX..X....X..XXXX.......XXXX..... ..            ",
"             ..XXX.X.XX...X.XXXX........X.X..XXXX.              ",
"              .XXXX..X. .XX.XXXX.........X..XXXXXX..            ",
"              ..XXXXX.. .XXX.X..........X.X...XXXXX..           ",
"               ..XXX..  .X...XXX.XXXXX.XXXX.  .XXX..            ",
"                .X..    .XXX.X.X.XXXXX.XXXX.   ....             ",
"                ...    ....X..X...X.........    ..              ",
"                     ..X.X.X.X.XX..   ..XXX.                    ",
"                    ..XXX..X..XXXX...  ..XX.                    ",
"                     ..XXXX. .XXXXXX..  ...                     ",
"                      .XXX.. .XXXX..    .                       ",
"                       ...    .X..                              ",
"                              ..                                ",
"                                                                ",
"                                                                ",
"                                                                ",
"                                                                "
};
