/* XPM */
static char *_80529b9a75c4253d61bc15887371070NSA7feZMK39IYR0w[] = {
/* columns rows colors chars-per-pixel */
"64 64 3 1 ",
"  c #849537",
". c #1D411E",
"X c #3CA370",
/* pixels */
"                                                                ",
"                                                                ",
"                                                                ",
"                                                                ",
"                                ..                              ",
"                              ..X.    ...                       ",
"                       .    ..XXXX. ..XXX.                      ",
"                     ...  ..XXXXXX. .XXXX..                     ",
"                    .XX..  ...XXXX..X..XXX..                    ",
"                    .XXX..   ..XX.X.X.X.X..                     ",
"              ..    .........X...X..X....    ...                ",
"             ....   .XXXX.XXXXX.X.X.XXX.    ..X.                ",
"            ..XXX.  .XXXX.XXXXX.XXX...X.  ..XXX..               ",
"           ..XXXXX...X.X..........X.XXX. ..XXXXX..              ",
"            ..XXXXXX..X.........XXXX.XX. .X..XXXX.              ",
"              .XXXX..X.X........XXXX.X...XX.X.XXX..             ",
"            .. .....XXXX.......XXXX..X....X..XX...              ",
"            .X.XX.XX...X.XXX...XX.....X.XX.XXX.                 ",
"            .XX.X.XXXXX..XXX......XXXXX.XXX...                  ",
"            ...X.X.XXX..XXXX......X.XXX.XXX.                    ",
"             .X.XX......XX.X.......X.XX.XX.                     ",
"             .XXX.X.....X.X.......X..XX.XX.                     ",
"              ...XXX....XX.X.......XX.X.XX.                     ",
"               .XXXX....XXXX.XXX...X.XX....                     ",
"                ...X....X...X.XXXX..XXX.....                    ",
"               .........XXXXX.XX..X.XXX..XX...                  ",
"               .XXX.....XXXXX.X.X.XX.X...XXX.                   ",
"               .XX.XX.XX..XX...X..XX...XX.X.                    ",
"               .XX.X.X.XXX...XX.....X....X.                     ",
"               .XX.XX.XX.X...XXXXXX.XX.XX..                     ",
"               ......XX......X.XXX.XXX..X.                      ",
"                     ..X......X.XX.XX.XXX.                      ",
"                     ..X.....X..XX.XX.XXX.                      ",
"                     .XX......XXX.XXX..X.                       ",
"                     .XXX.......X.X....X.                       ",
"                    ..XXX.....XXX..XXX.X.                       ",
"                    .XXX........X.XXXXX..                       ",
"                    ..X.X.X...X....X.XX....                     ",
"                      ....X...XX....X.X.....                    ",
"                       .XX.X.XXXXX....XX.XX..                   ",
"                        ..X.XX.XXXX..X.X..XXX.                  ",
"                         .X.X.X.XX..X.XX.X.XX.                  ",
"                         ...X..XX....XXX.X.X..                  ",
"                           .XXXX......XX..XX.                   ",
"                           ..XXX......XX.XXX.                   ",
"                           .X.X........X.XX.                    ",
"                           ..X....XX....X.X.                    ",
"                            .XX...XXX...XXX.                    ",
"                           ..XX..XXXXX.XXX.                     ",
"                           .XXX........XXX.                     ",
"                           .X...XXXXX...XX.                     ",
"                            ..XX.XXX..XX..                      ",
"                            ..X.X.X..X.XX..                     ",
"                             .X.X.X.X.X.XX..                    ",
"                              .X.X...X..XXXX.                   ",
"                              .XXX.X..XXX.X..                   ",
"                              ..XX.XXX.X.XX.                    ",
"                              .X.X.XX. .XX.                     ",
"                              .XX..X.. .X.                      ",
"                              .XX.XX.   .                       ",
"                              .XX.XX.                           ",
"                              ....XX.                           ",
"                                 ..X.                           ",
"                                   ..                           "
};
