/* XPM */
static char *result[] = {
/* columns rows colors chars-per-pixel */
"64 64 9 1 ",
"  c black",
". c #482A16",
"X c #6F4224",
"o c #A8733B",
"O c #FFC000",
"+ c #DFBE64",
"@ c #F8E859",
"# c #FEFFB7",
"$ c #849537",
/* pixels */
"$$$$$$$$$$$$$$$$$$$$$$$$$$$$$$$$$$$$$$$$$$$$$$$$$$$$$$$$$$$$$$$$",
"$$$$$$$$$$$$$$$$$$$$$$$$$$$$$$$$$$$$$$$$$$$$$$$$$$$$$$$$$$$$$$$$",
"$$$$$$$$$$$$$$$$$$$$$$$$$$$$$$$$$$$$$$$$$$$$$$$$$$$$$$$$$$$$$$$$",
"$$$$$$$$$$$$$$$$$$$$$$$$$$$$$$$$$$$$$$$$$$$$$$$$$$$$$$$$$$$$$$$$",
"$$$$$$$$$$$$$$$$$$$$$$$$$$$$$$$$$$$$$$$$$$$$$$$$$$$$$$$$$$$$$$$$",
"$$$$$$$$$$$$$$$$$$$$$$$$$$$$$$$$$$$$$$$$$$$$$$$$$$$$$$$$$$$$$$$$",
"$$$$$$$$$$$$$$$$$$$$$$$$$$$$$$$$$$$$$$$$$$$$$$$$$$$$$$$$$$$$$$$$",
"$$$$$$$$$$$$$$$$$$$$$$$$$$$$$$$$$$$$$$$$$$$$$$$$$$$$$$$$$$$$$$$$",
"$$$$$$$$$$$$$$$$$$$$$$$$$$$$$$$$$$$$$$$$$$$$$$$$$$$$$$$$$$$$$$$$",
"$$$$$$$$$$$$$$$$$$$$$$$$$$$$...........$$$$$$$$$$$$$$$$$$$$$$$$$",
"$$$$$$$$$$$$$$$$$$$$$$$$$$$$...........$$$$$$$$$$$$$$$$$$$$$$$$$",
"$$$$$$$$$$$$$$$$$$$$$$$$$$$$...........$$$$$$$$$$$$$$$$$$$$$$$$$",
"$$$$$$$$$$$$$$$$$$$$$$......XXXXXXXXXXX..$$$$$$$$$$$$$$$$$$$$$$$",
"$$$$$$$$$$$$$$$$$$$.......XXXXXXXXXXXXXXX...$$$$$$$$$$$$$$$$$$$$",
"$$$$$$$$$$$$$$$$$$$.......XXXXXXXXXXXXXXX...$$$$$$$$$$$$$$$$$$$$",
"$$$$$$$$$$$$$$$$$$$.......XXXXXXXXXXXXXXX...$$$$$$$$$$$$$$$$$$$$",
"$$$$$$$$$$$$$$$$$$$...XXXXXXoooooooooooooXXX...$$$$$$$$$$$$$$$$$",
"$$$$$$$$$$$$$$$$$$$...XXXXXXoooooooooooooXXX...$$$$$$$$$$$$$$$$$",
"$$$$$$$$$$$$$$$$$$$...XXXXXXoooooooooooooXXX...$$$$$$$$$$$$$$$$$",
"$$$$$$$$$$$$$$$$$$$...XXXXXXoooooooooooooXXX...$$$$$$$$$$$$$$$$$",
"$$$$$$$$$$$$$$$$...XXXoooooooooooooooooooXXX...$$$$$$$$$$$$$$$$$",
"$$$$$$$$$$$$$$$$...XXXoooooooooooooooooooXXX...$$$$$$$$$$$$$$$$$",
"$$$$$$$$$$$$$$$$...XXXooooooooooo    ooooXXX...$$$$$$$$$$$$$$$$$",
"$$$$$$$$........+++ XXoooooooooo      ooooooooo...$$$$$$$$$$$$$$",
"$$$$$$$$...+++++ooo               XX              $$$$$$$$$$$$$$",
"$$$$$$$$...+++++oooo        ####   XX      ####   $$$$$$$$$$$$$$",
"$$$$$$$$...+++++oooo         ++#   XX       ++#   $$$$$$$$$$$$$$",
"$$$$$$$$...+++++oooo          +#   oo        +#   $$$$$$$$$$$$$$",
"$$$$$$$$...+++++oooo           #   ooX        #   $$$$$$$$$$$$$$",
"$$$$$$$$...+++++oooo               ooX            $$$$$$$$$$$$$$",
"$$$$$$$$...+++++ooooo              ooX           .$$$$$$$$$$$$$$",
"$$$$$$$$...++++XXXooo              ++X           .$$$$$$$$$$$$$$",
"$$$$$$$$$$.....+XXXoo             +++XX          .$$$$$$$$$$$$$$",
"$$$$$$$$$$.....+XXXoooo           +++XX++++     ..$$$$$$$$$$$$$$",
"$$$$$$$$$$$$$..+XXXoooo        ++++++XX++++++++...$$$$$$$$$$$$$$",
"$$$$$$$$$$$$$......ooooooo+++++++++++XX++++++++...$$$$$$$$$$$$$$",
"$$$$$$$$$$$$$......ooooooo+++++++++++XX++++++++...$$$$$$$$$$$$$$",
"$$$$$$$$$$$$$$$$$..ooooooo+++++++++++XX++++++++...$$$$$$$$$$$$$$",
"$$$$$$$$$$$$$$$$$..ooooooo+++++++....++..++++++...$$$$$$$$$$$$$$",
"$$$$$$$$$$$$$$$$$..ooooooo+++++++....++..++++++...$$$$$$$$$$$$$$",
"$$$$$$$$$$$$$$$$$..ooooooo+++++++....++..++++++...$$$$$$$$$$$$$$",
"$$$$$$$$$$$$$$$$$..ooooooo+++++++....++..++++++...$$$$$$$$$$$$$$",
"$$$$$$$$$$$$$$$$$..ooooooo++..+++++++++++++++++...O$$$$$$$$$$$$$",
"$$$$$$$$$$$$$$$$O.....++++++++.........++......O@@O$$$$$$$$$$$$$",
"$$$$$$$$$$$$$$$O@.....++++++++.........++......OOOO$$$$$$$$$$$$$",
"$$$$$$$$$$$$$$$O@@O$..++++++++.........++......O@@O$$$$$$$$$$$$$",
"$$$$$$$$$$$$$$$O@@O$......+++++++++++++.....$$$O@@O$$$$$$$$$$$$$",
"$$$$$$$$$$$$$$$OO@O$......+++++++++++++.....$$OO@OO$$$$$$$$$$$$$",
"$$$$$$$$$$$$$$$O@OOO$$$$..+++++++++++++.....$O@@OO$$$$$$$$$$$$$$",
"$$$$$$$$$$$$$$$O@@@@O$$$...............$$$$$$O@@@O$$$$$$$$$$$$$$",
"$$$$$$$$$$$$$$$$OOOOOO$$$$.............$$$$$OO@OO$$$$$$$$$$$$$$$",
"$$$$$$$$$$$$$$$$$$O@@@O$$$$$$$$$$$$$$$$$$$$OO@O@O$$$$$$$$$$$$$$$",
"$$$$$$$$$$$$$$$$$$$OOO@O$$$$$$$OOOOO$$$$$$$O@@@O$$$$$$$$$$$$$$$$",
"$$$$$$$$$$$$$$$$$$$$O@@@O$$OOOO@@@@@OOOOO$O@OOOO$$$$$$$$$$$$$$$$",
"$$$$$$$$$$$$$$$$$$$$$O@@@OO@@@@@@@@@@@@@@OO@@@O$$$$$$$$$$$$$$$$$",
"$$$$$$$$$$$$$$$$$$$$$$OOOO@@@O@@@O@@@O@@O@@O@O$$$$$$$$$$$$$$$$$$",
"$$$$$$$$$$$$$$$$$$$$$$$O@O@@O@O@O@O@O@O@O@@OO$$$$$$$$$$$$$$$$$$$",
"$$$$$$$$$$$$$$$$$$$$$$$$OO@@O@@@O@O@O@O@O@@O$$$$$$$$$$$$$$$$$$$$",
"$$$$$$$$$$$$$$$$$$$$$$$$$O@@O@O@O@O@O@O@O@@O$$$$$$$$$$$$$$$$$$$$",
"$$$$$$$$$$$$$$$$$$$$$$$$$O@@@O@@@O@@@O@@OO@O$$$$$$$$$$$$$$$$$$$$",
"$$$$$$$$$$$$$$$$$$$$$$$$$$O@@@@@@@@@@@@@@@O$$$$$$$$$$$$$$$$$$$$$",
"$$$$$$$$$$$$$$$$$$$$$$$$$$$O@@@@@@@@@@@OOO$$$$$$$$$$$$$$$$$$$$$$",
"$$$$$$$$$$$$$$$$$$$$$$$$$$$$OOOOOOOOOOO$$$$$$$$$$$$$$$$$$$$$$$$$",
"$$$$$$$$$$$$$$$$$$$$$$$$$$$$$$$$$$$$$$$$$$$$$$$$$$$$$$$$$$$$$$$$"
};
