/* XPM */
static char *_ccc257db23644b6f3c2dfd90dcb87163QOKPLXEJGTiQ27D[] = {
/* columns rows colors chars-per-pixel */
"64 64 3 1 ",
"  c #849537",
". c #1D411E",
"X c #3CA370",
/* pixels */
"                                                                ",
"                                                                ",
"                                                                ",
"                                                                ",
"                                                                ",
"                                                                ",
"                                                                ",
"                                                                ",
"                                                                ",
"                                                                ",
"                                                                ",
"                                                  .             ",
"                                            .... ...            ",
"                                          ...XX. .X..           ",
"                                         .XX.X. .XXX..          ",
"                                 ...... ..X.X.X.XXXX..          ",
"                                 .XXXX..X.XX.XX.XXXX.           ",
"                                 .XXXX..XX.XX...XXX.            ",
"                                 ....X..XXX..XX.XX.             ",
"                                 .XXX..XXX..XXX..X.             ",
"                          ...    .X.X.......XX.X........        ",
"                          .X.....X.X........XX.XX.XXX.XX.       ",
"                         .XXXXX..XX.X........X.X.X.XX.XX.       ",
"                        ...XXXXXX.XXX.........XXX.XXX.X...      ",
"                       .X.X.XX.....X.XXXXXXXX......XX...        ",
"                     ...X.........XX.XX.XX.XXXX........         ",
"                     .XX.XX.........XXX.X.X.XXX....XX.  .       ",
"             ... .......X...........XXX.XX.XXXX....XX. ..       ",
"           ..XX...X.XXXX.............XXX...........XX. .X.      ",
"          ....XXXX.XX..XX......X.XXX....X..........XXX..X.      ",
"  ........XXX.XXX.XXX.X.XXX.X.X.X.XX.XXXX..........XX..XXX.     ",
"  .XXXX.XX..X......XXX.XXX..X.X..XX.X.XXX.....XX......XXXX.     ",
"  .XXX.XX.XX.X.......XXXX..XXXXXXXX..X.X......XXXX.XX.XXXXX.    ",
" .....XXXX..XX.X......XXX......XXXX....X.......XXX.X.X.XXX..    ",
" .XXX.....XXXX.XXX.....X...X.XX...X.XXX...X.XX.XXXXXX.X...      ",
".XXXXXXXX...XX.XXX........XXX.XXXX..XX..XX.X.X..XX......        ",
"......XX..X..X.XX.....X..X.XX.XXXXXX..XX.X..XX....X.XXXX..      ",
"     ..X.X.X...X.....X.X..XXX....XX..XXXX.XXXX.XXXX.X...X.      ",
"       .X.X.X......XXXX.XXXX...XX.....XXXXXXXXX..XXXX.X.XX.     ",
"     ..XX..XX.XX..XXXXXXX...XXXXX.X.X..................XXX.     ",
"    .XX.XXXX.XXXXX.............XXXX.X....XXXXXX..    .XXXX.     ",
"     .XX.XX..XXXX.XX.XX.X..    ....X.XX..XXXXXX.X..   .X..      ",
"      .XXX.. ...XXXXX..XX..       ..XXX.....XX.XXX..  ...       ",
"       ..X.     ...XXXXX..          .X..    ..X...X.   .        ",
"        ..         ...XX.            ..      .X.X.XX.           ",
"                     ...              .      .XX.XXX..          ",
"                                              .XXXXXX.          ",
"                                               .XXX...          ",
"                                               .XX..            ",
"                                               ....             ",
"                                                .               ",
"                                                                ",
"                                                                ",
"                                                                ",
"                                                                ",
"                                                                ",
"                                                                ",
"                                                                ",
"                                                                ",
"                                                                ",
"                                                                ",
"                                                                ",
"                                                                ",
"                                                                "
};
