/* XPM */
static char *_3c2b64fffe14d4eee647ee0b8f9f24fgJJRZNFt74N0K9rn[] = {
/* columns rows colors chars-per-pixel */
"64 64 3 1 ",
"  c #849537",
". c #1D411E",
"X c #3CA370",
/* pixels */
"                                                                ",
"                                                                ",
"                                                                ",
"                                                                ",
"                                                                ",
"                                                                ",
"                                                                ",
"                                                                ",
"                                                                ",
"                                                                ",
"                                                                ",
"                                                                ",
"                                                                ",
"               .                                                ",
"             ....                                               ",
"            ..XX.                                               ",
"          ...XXX.                                               ",
"          .XXXXXX.                                              ",
"          ..XXX.XX.      .              ...                     ",
"           .XX.X.X.      ..            .XX...         ..        ",
"        .   .X...X..    ..X.          ..XXXXX...     .X..       ",
"       ...  ..XXX.XX.....XXX..       ..XX..XXXXX... ..XXX.      ",
"      ..X.   ..X.XXXXXX..XX.X....    ..X.XX.XX.XXXX..XX.XX.     ",
"     .XXXX.    ..XXXXXX....X.XXXX.............XXXXX.XXXX.XX.    ",
"     .XXX..................X.X.XXXXX...XXXXXXX..XX.XX..XX..     ",
"     .XX.X.XXXX..XXXXXXXXX.....XX...XXXX.XXXX......X.X.X.       ",
"      .X...X.XXXX.XXXX.XXXX..XX....XXX..X.X.....X...X.X.X..     ",
"      ..XXXX.X....XX..X.XX..XXXXXX.XX.X..X.....XX.X..X..XX......",
"        ......XX..X.X.XX..XX..XXXX.XXX........XXX.XX...XXXXXXXX.",
"      ...X.XXXXXX.XX.X...XXX.X...XX.X...X.....XXX.XXXX.....XXX. ",
"    ..XXX.X.X.XXX.......X....XXXX......XXX......X.XX..XXXX..... ",
"    .XXXXX.XX.XXXX......X.X..XXXXXXXX..XXXX.......X.XX.XX.XXX.  ",
"     .XXXX......XX.....XXX.X.XX..X.X..XXX.XXX......X..XX.XXXX.  ",
"     .XXX..XX..........XXXX.XX.X.X.X.XXX.X.XXX.XXX.XXX........  ",
"      .X..XXX..........X....XXX.X......XX..XX.XXXX....          ",
"      .X. .XX...........XXX.............XXXX.X...XX..           ",
"       .. .XX....XXXX.XX.XXX...........X....... ...             ",
"       .  .XX....XXX.X.X.XXX.........XX.XX.                     ",
"         ........XXXX.XX.XX.XX.........X...                     ",
"        ...XX......XXXXXXXX.X.....XX.X.X.                       ",
"      ...X.XXX.XXX.........XXX.XXXXXX...                        ",
"       .XX.XX.X.X.X........X.XX..XXXXX.                         ",
"       .XX.XXX.XX.XX........X.X.....X.                          ",
"        ........X.XX.......X.X.    ...                          ",
"             .X..XXX..XXX..XXX.                                 ",
"             .XX.XX..XXX..X....                                 ",
"            .XXX...XX.XX..XXXX.                                 ",
"           .XXXX.XX.XX.X..XXXX.                                 ",
"          ..XXXX.X.X.X.. ......                                 ",
"          ..XXX. .X.XX.                                         ",
"           ..X. .XX...                                          ",
"            ... ....                                            ",
"             .                                                  ",
"                                                                ",
"                                                                ",
"                                                                ",
"                                                                ",
"                                                                ",
"                                                                ",
"                                                                ",
"                                                                ",
"                                                                ",
"                                                                ",
"                                                                "
};
