/* XPM */
static char *_d045e8f9b2d454ce0b055e1e50960daYojslOpYUsnfjLXo[] = {
/* columns rows colors chars-per-pixel */
"64 64 3 1 ",
"  c #849537",
". c #1D411E",
"X c #3CA370",
/* pixels */
"                                                                ",
"                                                                ",
"                                                                ",
"                                                                ",
"                                                                ",
"                                                                ",
"                                                                ",
"                                                                ",
"                                                                ",
"                                                                ",
"                                                                ",
"                                                                ",
"                                                                ",
"                                                                ",
"                                                                ",
"                                                                ",
"                                                                ",
"                                                                ",
"                         .              ...                     ",
"                         ..            .XX...         ..        ",
"                        ..X.          ..XXXXX...     .X..       ",
"                       ..XXX..       ..XX..XXXXX... ..XXX.      ",
"                       ..XX.X....    ..X.XX.XX.XXXX..XX.XX.     ",
"                       ....X.XXXX.............XXXXX.XXXX.XX.    ",
"                ...........X.X.XXXXX...XXXXXXX..XX.XX..XX..     ",
"                .XXXXXXXXX.....XX...XXXX.XXXX......X.X.X.       ",
"                 .XXXX.XXXX..XX....XXX..X.X.....X...X.X.X..     ",
"                 .XX..X.XX..XXXXXX.XX.X..X.....XX.X..X..XX......",
"                 .X.X.XX..XX..XXXX.XXX........XXX.XX...XXXXXXXX.",
"                 .XX.X...XXX.X...XX.X...X.....XXX.XXXX.....XXX. ",
"                  ......X....XXXX......XXX......X.XX..XXXX..... ",
"                     ...X.X..XXXXXXXX..XXXX.......X.XX.XX.XXX.  ",
"                     ..XXX.X.XX..X.X..XXX.XXX......X..XX.XXXX.  ",
"                     ..XXXX.XX.X.X.X.XXX.X.XXX.XXX.XXX........  ",
"                    ...X....XXX.X......XX..XX.XXXX....          ",
"                ........XXX.............XXXX.X...XX..           ",
"                .XXXX.XX.XXX...........X....... ...             ",
"                .XXX.X.X.XXX.........XX.XX.                     ",
"                .XXXX.XX.XX.XX.........X...                     ",
"                ...XXXXXXXX.X.....XX.X.X.                       ",
"                  .........XXX.XXXXXX...                        ",
"                          .X.XX..XXXXX.                         ",
"                          ..X.X.....X.                          ",
"                          .X.X.    ...                          ",
"                          .XXX.                                 ",
"                           ....                                 ",
"                                                                ",
"                                                                ",
"                                                                ",
"                                                                ",
"                                                                ",
"                                                                ",
"                                                                ",
"                                                                ",
"                                                                ",
"                                                                ",
"                                                                ",
"                                                                ",
"                                                                ",
"                                                                ",
"                                                                ",
"                                                                ",
"                                                                ",
"                                                                "
};
