/* XPM */
static char *_86bc96e002d41ce958358b6b7ad2950bgABJP2H3XH7vBhN[] = {
/* columns rows colors chars-per-pixel */
"64 64 3 1 ",
"  c #849537",
". c #1D411E",
"X c #3CA370",
/* pixels */
"                                                                ",
"                                                                ",
"                                                                ",
"                                                                ",
"                                                                ",
"                                                                ",
"                                                                ",
"                                                                ",
"                                                                ",
"                                                                ",
"                                                                ",
"                                                                ",
"                                                                ",
"                                                                ",
"                                                                ",
"                                                                ",
"                                                                ",
"                                                                ",
"                                 ....                           ",
"                                 .XXX.                          ",
"                          ...    .X.X.                          ",
"                          .X.....X.X..                          ",
"                         .XXXXX..XX.X.                          ",
"                        ...XXXXXX.XXX.........                  ",
"                       .X.X.XX.....X.XXXXXXXX...                ",
"                     ...X.........XX.XX.XX.XXXX.                ",
"                     .XX.XX.........XXX.X.X.XXX.                ",
"             ... .......X...........XXX.XX.XXXX.                ",
"           ..XX...X.XXXX.............XXX........                ",
"          ....XXXX.XX..XX......X.XXX....X...                    ",
"  ........XXX.XXX.XXX.X.XXX.X.X.X.XX.XXXX..                     ",
"  .XXXX.XX..X......XXX.XXX..X.X..XX.X.XXX..                     ",
"  .XXX.XX.XX.X.......XXXX..XXXXXXXX..X.X...                     ",
" .....XXXX..XX.X......XXX......XXXX....X......                  ",
" .XXX.....XXXX.XXX.....X...X.XX...X.XXX...X.XX.                 ",
".XXXXXXXX...XX.XXX........XXX.XXXX..XX..XX.X.X.                 ",
"......XX..X..X.XX.....X..X.XX.XXXXXX..XX.X..XX.                 ",
"     ..X.X.X...X.....X.X..XXX....XX..XXXX.XXXX.                 ",
"       .X.X.X......XXXX.XXXX...XX.....XXXXXXXXX.                ",
"     ..XX..XX.XX..XXXXXXX...XXXXX.X.X...........                ",
"    .XX.XXXX.XXXXX.............XXXX.X....                       ",
"     .XX.XX..XXXX.XX.XX.X..    ....X.XX..                       ",
"      .XXX.. ...XXXXX..XX..       ..XXX..                       ",
"       ..X.     ...XXXXX..          .X..                        ",
"        ..         ...XX.            ..                         ",
"                     ...              .                         ",
"                                                                ",
"                                                                ",
"                                                                ",
"                                                                ",
"                                                                ",
"                                                                ",
"                                                                ",
"                                                                ",
"                                                                ",
"                                                                ",
"                                                                ",
"                                                                ",
"                                                                ",
"                                                                ",
"                                                                ",
"                                                                ",
"                                                                ",
"                                                                "
};
